<?xml version="1.0" encoding="utf-8"?>
<!-- Generator: Adobe Illustrator 17.0.0, SVG Export Plug-In . SVG Version: 6.00 Build 0)  -->
<!DOCTYPE svg PUBLIC "-//W3C//DTD SVG 1.1//EN" "http://www.w3.org/Graphics/SVG/1.1/DTD/svg11.dtd">
<svg version="1.1" id="Layer_1" xmlns="http://www.w3.org/2000/svg" xmlns:xlink="http://www.w3.org/1999/xlink" x="0px" y="0px"
	 width="480px" height="480px" viewBox="0 0 480 480" enable-background="new 0 0 480 480" xml:space="preserve">
<path fill="#D9E1E2" d="M249.582,285.296v-65.575h220.976c2.16,11.429,3.275,24.948,3.275,39.582
	c0,49.199-13.449,110.035-56.794,153.38C374.878,456.585,321.01,480,249.652,480C117.387,480,6.167,372.265,6.167,240
	S117.387,0,249.652,0c73.171,0,125.296,28.711,164.46,66.132l-46.272,46.272c-28.084-26.341-66.132-46.829-118.258-46.829
	c-96.585,0-172.125,77.84-172.125,174.425s75.54,174.425,172.125,174.425c62.648,0,98.328-25.157,121.185-48.014
	c18.537-18.537,30.732-45.017,35.54-81.185L249.582,285.296z"/>
</svg>
