<?xml version="1.0" encoding="utf-8"?>
<!-- Generator: Adobe Illustrator 17.0.0, SVG Export Plug-In . SVG Version: 6.00 Build 0)  -->
<!DOCTYPE svg PUBLIC "-//W3C//DTD SVG 1.1//EN" "http://www.w3.org/Graphics/SVG/1.1/DTD/svg11.dtd">
<svg version="1.1" id="Layer_1" xmlns="http://www.w3.org/2000/svg" xmlns:xlink="http://www.w3.org/1999/xlink" x="0px" y="0px"
	 width="480px" height="480px" viewBox="0 0 480 480" enable-background="new 0 0 480 480" xml:space="preserve">
<path fill="#D9E1E2" d="M240.054,116.934c-68.12,0-123.066,54.946-123.066,123.066s54.946,123.066,123.066,123.066
	S363.119,308.12,363.119,240S308.174,116.934,240.054,116.934z M240.054,320.009c-44.021,0-80.009-35.881-80.009-80.009
	s35.881-80.009,80.009-80.009s80.009,35.881,80.009,80.009S284.075,320.009,240.054,320.009L240.054,320.009z M396.858,111.9
	c0,15.959-12.853,28.705-28.705,28.705c-15.959,0-28.705-12.853-28.705-28.705s12.853-28.705,28.705-28.705
	C384.005,83.195,396.858,96.048,396.858,111.9z M478.367,141.033c-1.821-38.451-10.604-72.511-38.773-100.573
	C411.532,12.398,377.472,3.615,339.02,1.687c-39.63-2.249-158.411-2.249-198.041,0C102.635,3.508,68.575,12.291,40.406,40.353
	S3.561,102.475,1.633,140.926c-2.249,39.63-2.249,158.411,0,198.041c1.821,38.451,10.604,72.511,38.773,100.573
	s62.122,36.845,100.573,38.773c39.63,2.249,158.411,2.249,198.041,0c38.451-1.821,72.511-10.604,100.573-38.773
	c28.062-28.062,36.845-62.122,38.773-100.573C480.616,299.337,480.616,180.663,478.367,141.033L478.367,141.033z M427.169,381.488
	c-8.354,20.993-24.527,37.166-45.628,45.628c-31.597,12.532-106.571,9.64-141.488,9.64s-109.999,2.785-141.488-9.64
	c-20.993-8.354-37.166-24.527-45.628-45.628c-12.532-31.597-9.64-106.571-9.64-141.488s-2.785-109.999,9.64-141.488
	c8.354-20.993,24.528-37.166,45.628-45.628c31.597-12.532,106.571-9.64,141.488-9.64s109.999-2.785,141.488,9.64
	c20.993,8.354,37.166,24.528,45.628,45.628c12.532,31.597,9.64,106.571,9.64,141.488S439.701,349.999,427.169,381.488z"/>
</svg>
