<?xml version="1.0" encoding="utf-8"?>
<!-- Generator: Adobe Illustrator 17.0.0, SVG Export Plug-In . SVG Version: 6.00 Build 0)  -->
<!DOCTYPE svg PUBLIC "-//W3C//DTD SVG 1.1//EN" "http://www.w3.org/Graphics/SVG/1.1/DTD/svg11.dtd">
<svg version="1.1" id="Layer_1" xmlns="http://www.w3.org/2000/svg" xmlns:xlink="http://www.w3.org/1999/xlink" x="0px" y="0px"
	 width="480px" height="480px" viewBox="0 0 480 480" enable-background="new 0 0 480 480" xml:space="preserve">
<path fill="#D9E1E2" d="M244.127,444.601c-112.334,0-206.682-90.221-206.682-204.028c0-113.809,94.349-205.798,206.682-205.798
	c121.179,0,198.132,83.734,198.132,170.712c0,68.402-45.11,111.154-104.668,111.154c-35.997,0-71.552-21.006-96.902-57.649
	c71.132-20.504,119.243-72.889,132.284-131.048l-35.382-0.294c-13.477,52.185-62.928,96.558-139.399,109.536l37.679-109.242H125.308
	l-10.319,30.074h72.469l-65.689,190.467h38.035l35.376-102.562c32.702,68.464,88.104,105.214,142.412,105.214
	c74.594,0,140.048-57.493,140.048-145.65c0-104.67-92.283-205.8-233.513-205.8C112.335-0.313,2.359,107.304,2.359,240.572
	c0,132.972,109.976,239.114,241.768,239.114c81.671,0,151.549-42.162,180.147-74.3l-23.881-23.881
	C372.678,409.515,314.299,444.601,244.127,444.601"/>
<path fill="#D9E1E2" d="M452.874,358.803c0-3.834-2.948-7.961-9.435-7.961h-7.664v25.356h2.948v-9.14h4.716
	c0.717,0,1.383-0.053,2.011-0.145l5.951,9.285h3.833l-6.794-10.189C451.565,364.472,452.874,361.493,452.874,358.803
	 M443.144,364.405h-4.422v-10.909h4.422c5.013,0,6.781,2.654,6.781,5.308S448.158,364.405,443.144,364.405"/>
<path fill="#D9E1E2" d="M443.439,339.933c-12.973,0-23.291,10.319-23.291,22.997c0,13.267,10.318,23.882,23.291,23.882
	c12.975,0,23.588-10.615,23.588-23.882C467.027,350.253,456.414,339.933,443.439,339.933 M443.439,384.159
	c-10.908,0-20.637-9.729-20.637-21.229c0-10.614,9.729-20.049,20.637-20.049c11.205,0,20.639,9.141,20.639,20.049
	C464.078,374.429,454.644,384.159,443.439,384.159"/>
</svg>
