<?xml version="1.0" encoding="utf-8"?>
<!-- Generator: Adobe Illustrator 17.0.0, SVG Export Plug-In . SVG Version: 6.00 Build 0)  -->
<!DOCTYPE svg PUBLIC "-//W3C//DTD SVG 1.1//EN" "http://www.w3.org/Graphics/SVG/1.1/DTD/svg11.dtd">
<svg version="1.1" id="Layer_1" xmlns="http://www.w3.org/2000/svg" xmlns:xlink="http://www.w3.org/1999/xlink" x="0px" y="0px"
	 width="525px" height="310px" viewBox="0 0 525 310" enable-background="new 0 0 525 310" xml:space="preserve">
<path fill="#DA1984" d="M506.848,85.345L267.616,17.262c-3.078-0.793-6.153-0.793-9.231,0L19.153,85.345
	C15.306,86.136,13,89.303,13,94.052v111.897c0,4.749,2.306,7.917,6.153,8.708l239.232,68.084c3.078,0.791,6.153,0.791,9.231,0
	l239.232-68.084c3.846-0.791,6.152-3.959,6.152-8.708V94.052C513,89.303,510.694,86.136,506.848,85.345"/>
<path fill="#FFFFFF" d="M257.484,176.477c-5.608,4.271-13.706,7.564-20.203,7.653c-11.659,0.178-16.999-9.524-12.55-21.002
	l3.916-10.146c2.046-5.431-0.445-7.654-3.205-7.654c-6.941,0-20.2,12.547-29.279,37.911h-9.966l9.167-26.52
	c-5.965,3.648-12.727,5.339-19.758,5.695c-3.293,11.481-12.994,21.716-26.166,21.716c-6.228,0-11.657-3.026-14.861-8.01
	c-9.613,6.675-17.086,8.099-23.496,8.099c-14.684,0-26.965-10.59-32.749-31.148L67.92,183.328H56.439l19.848-57.58H54.394
	l3.115-9.077h33.373L79.49,149.777c23.049-3.915,38.003-17.354,42.096-33.106l10.679,0.091
	c-4.006,17.976-19.224,34.173-41.65,40.046c4.182,10.502,11.213,17.087,20.468,17.087c5.43,0,11.392-1.067,20.382-7.653v-1.335
	c0-10.325,9.342-28.924,28.389-28.924c10.413,0,16.554,7.299,16.997,16.732c10.503-0.802,19.758-4.717,25.364-15.841h9.612
	l-3.292,9.434c5.961-6.588,12.725-10.325,19.58-10.325c8.986,0,14.415,8.186,10.055,19.847l-3.026,8.009
	c-2.936,7.832-0.712,10.323,3.293,10.323c3.649,0,10.234-2.135,17.532-7.655c1.068-12.903,12.016-30.524,28.479-30.524
	c6.051,0,9.613,1.869,12.104,3.917l5.071-14.863h-20.647l3.116-9.255h31.06l-15.487,45.119c-4.004,11.748,1.069,13.172,4.719,13.172
	c5.695,0,11.391-3.826,17.264-7.831v-0.179c0-13.971,11.214-29.991,27.144-30.08c14.239-0.089,19.223,11.659,10.768,28.033h-27.411
	l-0.089,1.515c0,6.851,5.786,8.809,13.172,8.809c9.435,0,21.181-2.936,33.908-10.946c0.267-1.156,0.623-2.404,1.067-3.738
	l11.659-34.619H371.13l3.115-9.255h31.149l-15.486,45.032c-4.004,11.568,0.356,13.172,4.361,13.172
	c4.361,0,10.413-2.849,17.176-8.012c1.513-12.815,12.281-30.08,28.39-30.08c8.187,0,14.328,3.293,20.825,9.701l-5.43,16.108
	c-4.004,11.748,1.604,12.459,4.63,12.459c2.58,0,7.207-1.513,11.746-4.36v10.679c-2.58,1.78-7.208,3.649-13.616,3.649
	c-6.676,0-12.46-2.404-14.684-8.81c-6.141,6.05-13.083,8.81-18.245,8.81c-5.606,0-10.233-2.76-12.459-7.833
	c-5.964,4.629-13.616,7.655-21.538,7.655c-5.34,0-10.857-2.759-12.37-9.522c-10.679,5.873-23.316,9.7-33.997,9.7
	c-9.166,0-16.285-3.293-20.023-8.544c-5.784,4.895-14.863,8.455-21.538,8.455c-7.475,0-12.37-4.004-14.239-9.79
	c-6.407,6.942-13.972,9.879-19.221,9.879C264.245,184.13,259.708,181.461,257.484,176.477 M149.975,174.162
	c10.055,0,16.464-11.48,16.464-19.847c0-5.427-3.381-8.364-7.654-8.364c-10.59,0-16.909,12.014-16.909,18.956
	C141.876,170.069,144.724,174.162,149.975,174.162 M270.92,174.162c5.34,0,16.732-8.275,22.427-24.829
	c-2.402-2.136-4.893-3.382-8.988-3.382c-12.636,0-18.067,17.532-18.067,22.782C266.292,172.649,268.517,174.162,270.92,174.162
	 M353.063,155.295c1.78-4.627,1.068-9.7-4.893-9.7c-5.608,0-10.591,4.182-13.528,9.7H353.063z M426.308,174.162
	c5.072,0,17.265-8.188,23.049-24.473c-2.136-2.225-5.784-3.827-9.611-3.827c-12.638,0-18.065,17.621-18.065,23.227
	C421.681,173.095,423.906,174.162,426.308,174.162"/>
<path fill="#FFFFFF" d="M471.624,129.223c-3.75,0-6.736,2.985-6.736,6.65c0,3.837,2.986,6.905,6.736,6.905s6.821-3.068,6.821-6.905
	C478.445,132.208,475.374,129.223,471.624,129.223 M471.624,142.011c-3.155,0-5.969-2.813-5.969-6.138
	c0-3.07,2.814-5.797,5.969-5.797c3.24,0,5.967,2.643,5.967,5.797C477.591,139.198,474.864,142.011,471.624,142.011"/>
<path fill="#FFFFFF" d="M473.072,136.723c0.939-0.425,1.279-1.278,1.279-2.045c0-1.108-0.851-2.301-2.727-2.301h-2.217v7.332h0.852
	v-2.644h1.365h0.596l1.706,2.644h1.107L473.072,136.723z M471.539,136.298h-1.28v-3.154h1.28c1.449,0,1.961,0.768,1.961,1.534
	C473.5,135.445,472.988,136.298,471.539,136.298"/>
</svg>
