<?xml version="1.0" encoding="utf-8"?>
<!-- Generator: Adobe Illustrator 17.0.0, SVG Export Plug-In . SVG Version: 6.00 Build 0)  -->
<!DOCTYPE svg PUBLIC "-//W3C//DTD SVG 1.1//EN" "http://www.w3.org/Graphics/SVG/1.1/DTD/svg11.dtd">
<svg version="1.1" xmlns="http://www.w3.org/2000/svg" xmlns:xlink="http://www.w3.org/1999/xlink" x="0px" y="0px" width="1080px"
	 height="1920px" viewBox="0 0 1080 1920" enable-background="new 0 0 1080 1920" xml:space="preserve">
<g id="Layer_3">
	<g>
		<path fill="#1D1F2A" d="M566.5,1233.5c0,0-8,49-9,61s1,40-2,48s0,7,0,24s1,33-4,54c-2.523,10.599-14.54,49.075-25,87
			c-10.265,37.221-19,74-19,74l-4,22l9,1c0,0,1,0,1,6s-4,10-4,10s3,18,2,20s-5-2-6-3s-4,11-4,18s-2,44-2,59s4,21,8,28s5,15,7,26
			s6,32,2,38s-17,1-28-1s-38-13-50-20s-8-35-8-41s-1-19-1-19h-20c0,0-2-2-11-11s-12-23-12-23s13-41,17-53s19-28,19-28l27-35
			c0,0,2-20,5-64s-3-79-1-98s14-50,14-50s-6-27-7-68s0-70,0-70L514,1197l56,25L566.5,1233.5z"/>
		<path fill="#1D1F2A" d="M402,1227c0,0-94-87-101-68s2.5,61.5,2.5,61.5s2,21,3,34s-3,27-3,39s-5.798,68.685,0,117
			c9,75,46,177,49,186s7,26,6,29s-5-2-4,2s0,30,3,40s3,10,4,15s5,7,3,18s9,51,11,58s6,24,6,24s30,1,33,0s10-9,9-11L446,1737l-53-69
			l22-55l-8-5l-8-7l-10-98l-5-103"/>
		<path fill="#1D1F2A" d="M651.5,1093.5c0,0,1,49,0,63s-5,92-5,100s-8,10-26,18s-27,7-27,7l9-40c0,0-7-6-19-8s-38-4-38-4s-7,22-9,24
			s-36,3-40,0s-2-31-2-31s-4,1-22,3s-56,1-76,0s-23,3-29,6s-9,0-14,0s-57-15-57-15l-17,45c0,0-11-1-18-2s-34-20-37-24s3-22,3-22
			s-6-1-19-7s-57-22-57-22s13-44,20-60s21-80,24-91s17-75,22-95s8-53,7-66s6-16,6-16s5-27,12-48s6-52,7-62s-1-41-1-53s6-31,3-41
			c-0.712-2.374-7.85-13.316-18.511-28.624c-4.703-6.754-12.665-2.284-18.489-10.376c-6.805-9.454-11.632-31.649-19.23-41.863
			c-8.901-11.965-18.965-10.845-27.77-22.137c-24.078-30.883-44.511-69-50-69c-14,0-7-6-14-17s-2-19-4-32s0-22,8-29
			c3.197-2.798,24.923,3.829,50.239,12.282c10.194,3.404,21.377,1.217,31.761,4.718c6.503,2.192,12.445,10.194,18.4,12.108
			c7.493,2.408,12.831-4.64,18.6-3.108c9.634,2.558,9,15,19,11c9.285-3.714,16-5,20-8s19-6,23-8s20-3,27-5s18-10,18-10s6-19,12-26
			s10-8,14-10s8,0,10,0s10-2,10-2s4,1,7,3s21-2,28-3s25,3,33,5s25,14,33,18s21,16,30,19s50,13,64,27s19,39,22,49s6,21,6,21"/>
		<path fill="#1D1F2A" d="M663.795,1097.367c0,0-8.295-7.867-15.295-13.867c-5.475-4.693-12-12-12-12s-6-1-7-4"/>
		<polyline fill="#1D1F2A" points="648.5,1091.5 637.5,1075.5 632.5,1068.5 		"/>
		<path fill="#1D1F2A" d="M708.577,1103.805c0,0-8.077-3.305-14.077-6.305s-20-11-27-16s-23-20-23-20s-7-3-6-9"/>
		<path fill="#1D1F2A" d="M127.5,405.5c0,0-15.013-5.23-17.15-4.573c-2.137,0.657-14.828-1.059-23.211-5.501
			c-8.382-4.442-18.835-11.056-24.558-8.362c-5.722,2.694-15.719,6.701-21.442,9.394s-15.096,10.252-19.472,15.807
			s-7.337,11.143-7.404,13.971s9.14,2.338,9.14,2.338s-4.476,9.796-5.233,11.9c-0.757,2.104,1.313,4.275,2.694,5.722
			c0,0-2.137,0.657-1.481,2.794c0.657,2.137,4.108,5.756,9.863,1.648c5.756-4.108,7.203-5.488,7.203-5.488s2.137-0.657,7.826-1.937
			s25.382,3.43,28.176,4.911c2.794,1.481,8.416,3.029,11.934,3.819s5.689-1.28,5.689-1.28S94.5,442.5,98.5,445.5"/>
		<path fill="#1D1F2A" d="M51.137,392.452c0,0-13.314-5.266-13.381-2.439c-0.067,2.828,3.35,7.86,3.35,7.86"/>
		<path fill="#1D1F2A" d="M333.5,408.5c0,0,28-9,42-12s29-5,35-1s27,9,41,11s55.802,4.656,55.802,4.656"/>
		<line fill="#1D1F2A" x1="494.5" y1="1220.5" x2="467.5" y2="996.5"/>
		<path fill="#1D1F2A" d="M525.5,706.5c0,0,9,8,3,16s-16,17-11,33s13,22,9,32s-13,27-10,41s7,23,14,25s4-1,9,6s2,9,0,15s-8,27-3,31
			s46.625,27.5,46.625,27.5"/>
		<path fill="#1D1F2A" d="M589.5,592.5c0,0-14,75-18,88s-25,73-31,81s-14,26-14,26"/>
		<path fill="#1D1F2A" d="M564.5,542.5c-2,18,6,43,7,66s-2,47-4,68s-8.429,40.026-8.429,40.026"/>
		<path fill="#1D1F2A" d="M503.5,1598.5c0,0-13-14-24-18s-30-5-30-5"/>
		<path fill="#1D1F2A" d="M356.5,1628.5c0,0,6,7,24,4s30.91-8.328,30.91-8.328l-4.91-14.672"/>
		<path fill="#1D1F2A" d="M353.5,1231.5c0,0,9-33,12-49s4-125,10-145s-4-60-4-60"/>
		<path fill="#1D1F2A" d="M273.5,981.5c0,0-9,56-21,88s-16,120-19,129s-5,15-5,15"/>
		<path fill="#1D1F2A" d="M639.5,963.5c0,0-1-7,0-14s-4-13-2-19s-6-23-6-23s-14-41-20-48s-1-26,0-34s-8-62-10-86s-5-93-3-118
			s5-125,6-142s-2-22,3-27s20-27,32-33c2.26-1.13,4.449-3.075,6.513-5.489C654.912,403.606,661.5,384.5,661.5,384.5
			s29.163-26.55,34-33c9-12,35-35,59-47s46-24,77-22s39,19,39,19l2,16l6,3c0,0,3-8,7-6s25,20,25,20l11,14c0,0-1,9,2,8s5-5,9-4
			s16,9,19,12s6,7,6,11s-1,6-1,6s21,9,24,12s26,22,34,43s27,61,28,85s14,88,17,114s1,65,0,81s-4,55-10,84s-7,44-10,57s-5,30-12,38
			s-11,17-9,24s0,12-6,17s-8,23-10,30s1,13-4,14s-22-2-22-2l3-16"/>
		<path fill="#1D1F2A" d="M646.5,414.5l25-17c0,0,15-10,25-7s71,35,82,41s45,33,60,38s29,11,36,8s46-16,51-20s31-20,31-29s0-49,0-49
			"/>
		<path fill="#1D1F2A" d="M923.5,356.5c0,0,4,19-2,26s-17,27-27,32s-15,11-32,7s-75-24-86-28s-33-14-33-14"/>
		<path fill="#1D1F2A" d="M675.5,393.5c0,0,3-13,24-30s34-29,46-35s43-18,58-19s35,10,35,10s10-10,17-9s19.467,8.233,19.467,8.233"
			/>
		<path fill="#1D1F2A" d="M632.5,1085.5c0,0-3,9,0,12s9,4,12,2s4-6,4-6"/>
		<path fill="#1D1F2A" d="M661.5,1097.5c0,0-1,13,2,20s3,14,9,16s10-2,10-4s0-10-2-14s-3-10-3-10"/>
		<path fill="#1D1F2A" d="M700.5,1115.5l3,8c0,0,7,7,5,12s-6,7-10,6c-4.851-1.213-10-8-12-11s-5-11-5-11"/>
		<path fill="#1D1F2A" d="M712.5,1103.5c0,0,0,8,1,13s4,15,9,18s11,3,13,0s2-7-1-11s-2-12-2-16s-1-21,1-27s4-14,4-14s2,5,4,9
			s0,15,3,21s5,10,11,12s11,0,9-6s-5-4-4-12s-1-17-2-23s0-18-3-23s-10-18-10-18l-35,19l-33,12c0,0-15,0-17-14s2-21,0-29
			s-15-37-15-37l-4.93-9.038L633.5,955.5l-18-83l-21-3c0,0-8,17-7,28s-3,21-4,26s0,20,3,26s3,20,7,28s15,43,18,52s9,29,12,36
			s7,19,13,23s13,3,23,7s23,12,29,15s14,6,18,5s5-5,3-8s-2-4,1-4s7-3,2-9s-21-18-30-26s-11-12-11-12"/>
		<path fill="#1D1F2A" d="M700.5,509.5c0,0,6,160,5,175s-1,95,2,105s10,110,9,122s-3,46,4,61s24,52,24,52"/>
		<path fill="#1D1F2A" d="M996.5,488.5c0,19,10,35,12,49s-9,56-10,75s-17,118-20,124s-3,63,2,89s3,66,10,82s13,36,2,44s-41,31-97,36
			s-121,13-140,6s-33-16.702-33-16.702"/>
		<path fill="#1D1F2A" d="M976.5,978.5c0,0,4,25,4,42s3,53-2,84c-0.864,5.358-3.922,29.125-4,93c0,0,2,37,0,46s-13,35-10,40
			s6-1,10,4s3,11,1,14s-4,9-3,10s7,2,8,6s1,5-2,10s-1,8,1,10s3,4,3,8s1,5,4,8s2,7,1,10s0,7,2,9s3,10,4,13s11,52,14,75s4,55,5,73
			s15,46,18,49s15,21,14,29s1,16-6,18s-13,3-13,3s4,3,4,8s-1,14-1,18s3,20-1,23s-13,16-30,18s-47,4-47,4s-17-26-20-36s-1-19-4-25
			s-17-10-14-19s7-61,7-61s-18-39-23-65s-12-60-9-72c0,0,2-11,0-15s-17-26-19-38s0-23-3-26s-9-5-13-14s-5-18-6-27s-6-49-7-57
			s-5-58-6-68s-2-30-2-30s-3,25-2,31s3,61,5,79s3,59,4,69s4,30,2,37s-5,8-5,8s3,12,4,15s3,11,5,19s13,93,13,93s7,38,6,50s-5,72-5,72
			s-3,20,0,27s8,9,6,12s-6,17-6,17s3,4,0,10s-6,39-6,39s-24,7-46,1s-46-16-49-30s-9-29-10-30s-13-23-9-37s9-54,11-60s3-13,0-20
			s-5-26-7-31s-28-91-24-99s11-19,10-27s-14-18-16-28s-3-29-3-37s-1-29-3-39s-10-45-12-53c-1.026-4.105-6.167-29.411-10-55
			c-3.636-24.274-6-49-6-49"/>
		<path fill="#1D1F2A" d="M976.5,971.5c0,0-5,10-18,13s-34.591-1.405-34.591-1.405"/>
		<path fill="#1D1F2A" d="M908.5,987.5c0,0,0,19,0,26s-8,73-10,80s-5,22-5,22l46,25c0,0,33-20,37-35s4.018-18.499,4.018-18.499"/>
		<path fill="#1D1F2A" d="M764.948,1107.415l9.552,4.085c0,0,27-18,29-22s3-16,2-26s-6-14-6-14s-1-23,0-33s2-20.253,2-20.253"/>
		<line fill="#1D1F2A" x1="746" y1="1100.5" x2="732.257" y2="1096.253"/>
		<path fill="#1D1F2A" d="M753.5,1686.5l-9,10c0,0-18,3-25,3s-20,4-22,16s-3,31,6,37s58,28,58,28s26.049,16.117,34,17c9,1,37,1,47-2
			s16-3,15-15s-1-23-3-34s-6.231-16.971-6.231-16.971"/>
		<path fill="#1D1F2A" d="M953.486,1703.295l4.014,10.205c0,0-7,7-4,23c1.364,7.273,3.347,15.786,5.106,22.909
			c2.11,8.546,3.894,15.091,3.894,15.091s12,3,22,1s37-4,46-12s36-32,36-32s6-13,3-22s-16-14-22-18s-10-12-12-13
			s-6.028-2.481-6.028-2.481"/>
		<path fill="#1D1F2A" d="M960.5,1760.5c0,0,25-1,36-4s33-7,48-19s24-25,24-25"/>
		<path fill="#1D1F2A" d="M696.191,1728.248c0,0,5.309,11.252,17.309,18.252s69,30,69,30s10,4,37,2s37.394-6.774,37.394-6.774"/>
		<path fill="#1D1F2A" d="M998.5,980.5c0,0,2,14,0,19s-1,13-6,20s-12,14-12,14"/>
		<path fill="#1D1F2A" d="M871.575,311.71c0,0,10.253-18.354,22.305-31.345c12.052-12.991,20.51-34.472,24.955-50.132
			c4.444-15.66,1.241-56.351-4.15-70.205c-5.391-13.854-26.009-39.756-38.105-51.362s-19.253-12.935-29.984-11.574
			c-10.731,1.361-9.847-4.902-13.428-6.684c-3.581-1.782-9.39,0.911-9.39,0.911s-5.375-4.91-12.533-6.239
			c-7.158-1.329-42.004,19.305-48.708,21.553c-6.704,2.248-25.894,25.09-31.699,30.02c-5.805,4.93,5.001,46.054,5.001,46.054
			l-16.03,38.936l3.151,11.622c0,0-13.818,25.516-14.256,30.883c-0.438,5.367,6.796,66.352,6.796,66.352"/>
		<path fill="#1D1F2A" d="M754.312,260.042c0,0,4.468-2.244,8.491-3.593c4.023-1.349,7.591-6.275,8.479-10.301"/>
		<path fill="#1D1F2A" d="M786.119,290.396c0,0-8.534-21.004-5.423-31.743c3.111-10.739,3.975-28.182,0.386-34.436
			s-8.537-7.88-8.537-7.88"/>
		<path fill="#1D1F2A" d="M735.839,182.707c0,0-0.434,7.603-0.418,16.548s0.048,26.833-1.735,30.414s2.256,11.176,6.716,4.46
			c4.46-6.716,12.044-17.463,12.044-17.463s1.313-16.102,8.021-16.114c6.708-0.012,10.289,1.771,11.642,8.029
			c1.353,6.259-0.422,14.312-0.422,14.312s-14.709,27.306-16.492,30.887c-1.782,3.581-2.654,16.552-8.029,11.642
			c-5.375-4.91-2.702-10.281,2.2-20.129c4.902-9.847,9.808-17.459,9.354-21.036c-0.454-3.577,1.771-10.289,4.452-11.188
			c2.682-0.899,1.779-5.817-0.012-6.708"/>
		<path fill="#1D1F2A" d="M328.5,197.5c0-3,4-6,7-7l2-2c0,0,31-20,38-22s19,2,19,2s16-5,30,0s20.451,6.45,23,9c6,6,10,11,10,11"/>
		<path fill="#1D1F2A" d="M341.5,191.5c1.65,2.19,6.629,11.79,4.808,17.329s-8.96,10.233-12.64,12.093s-9.09,5.136-9.09,5.136
			s-2.964-8.556-3.094-13.654c-0.13-5.097,3.421-12.054,7.634-16.085c4.213-4.031,10.286-4.382,14.408-4.29"/>
		<path fill="#1D1F2A" d="M334.11,222.872c0,0,6.073-0.351,5.227,4.968s-1.158,8.465-8.076,14.134
			c-6.918,5.669-19.87,20.908-19.87,20.908s-2.677-13.44,1.965-23.003C321.744,222.599,334.11,222.872,334.11,222.872z"/>
		<path fill="#1D1F2A" d="M330.195,246.317c2.793,0.444,2.964,8.556-0.495,11.391s-8.076,14.134-10.339,17.723
			c-2.263,3.589-5.059,9.349-5.059,9.349s-7.216-13.745-3.666-20.702C314.187,257.122,324.876,245.472,330.195,246.317z"/>
		<path fill="#1D1F2A" d="M330.896,258.463c3.056,4.434,8.725,11.353,10.051,17.204c1.326,5.852,1.014,8.998,1.014,8.998
			s-6.073,0.351-11.521-5.592s-8.986-8.366-7.126-11.276"/>
		<path fill="#1D1F2A" d="M325.434,275.081c0,0,6.462,14.941,4.329,23.628c-2.133,8.686-1.263,11.792-1.263,11.792s-3-2-11-14
			c-5.114-7.671-1.241-17.27-1.241-17.27l5.495-8.305L325.434,275.081z"/>
		<path fill="#1D1F2A" d="M329.686,280.269c0,0,9.882,2.887,13.159,8.297s6.02,12.991,5.266,14.187
			c-0.754,1.196-3.992,5.006-9.219,0.039s-8.72-9.071-8.72-9.071l-2.96-13.916L329.686,280.269z"/>
		<path fill="#1D1F2A" d="M342.701,306.03c0,0,0.702,12.145-1.874,18.881c-2.575,6.736-6.438,16.839-6.438,16.839
			s-2.21-9.753-4.42-19.505c-2.21-9.753-1.68-18.128-1.68-18.128"/>
		<path fill="#1D1F2A" d="M346.602,305.146c0,0,5.76,2.796,7.086,8.648c1.326,5.852,1.144,14.096,1.144,14.096
			s-6.865-7.672-10.012-7.985s-2.681-1.443-2.681-1.443"/>
		<path fill="#1D1F2A" d="M354.078,329.086c0,0,1.326,5.852-3.421,12.054s-8.388,17.281-7.946,19.232
			c0.442,1.951-7.086-8.648-8.946-12.328c-1.859-3.68,1.51-8.609,1.51-8.609"/>
		<path fill="#1D1F2A" d="M355.716,331.791c0,0,7.932,3.329,8.504,10.377s-0.716,10.416-0.716,10.416s-7.711-2.354-10.103-3.863
			c-2.393-1.509-4.031-4.213-4.031-4.213"/>
		<path fill="#1D1F2A" d="M360.357,352.271c0,0,2.08,4.655,4.473,6.164c2.393,1.509,4.694,7.139,3.185,9.532
			c-1.509,2.393-6.515,3.533-6.515,3.533s-8.465-6.291-12.145-4.431s-8.556,2.964-8.465-1.158c0.091-4.122,2.006-7.614,2.006-7.614"
			/>
		<path fill="#1D1F2A" d="M351.306,366.627"/>
		<path fill="#1D1F2A" d="M344.9,351.933"/>
		<path fill="#1D1F2A" d="M462.257,382.712c0,0-3.757-15.212-3.757-25.212s6-32,6-32"/>
		<path fill="#1D1F2A" d="M458.5,188.5c0,0-4,2-3,7s2,9,2,9s2-3,5-4s3-2,3-2s0-4-2-6S458.5,188.5,458.5,188.5z"/>
		<path fill="#1D1F2A" d="M466.5,200.5c0,0,6,4,7,9s0,13-4,17s-7,12-7,12s-6-10-5-19s0-13,3-16S466.5,200.5,466.5,200.5z"/>
		<path fill="#1D1F2A" d="M471.5,225.5c0,0,1,1,4,6c6,10,3,18,3,18l-14,6c0,0-3,0-4-8s2-8,4-12S471.5,225.5,471.5,225.5z"/>
		<path fill="#1D1F2A" d="M464.5,255.5c-6,5-5,23-4,26s3,8,3,8s9-14,12-18s8-9,6-13s-3-7-3-7S470.5,250.5,464.5,255.5z"/>
		<path fill="#1D1F2A" d="M464.5,286.5c-2,4-5,9-4,12s2,11,2,11s13-16,16-20s5-10,3-14s-3-7-3-7L464.5,286.5z"/>
		<path fill="#1D1F2A" d="M465.5,305.5c-2,4-5,9-4,12s2,11,2,11s8-10,11-14s10-6,11-13c0.632-4.427-6-14-6-14L465.5,305.5z"/>
		<path fill="#1D1F2A" d="M475.671,312.824c0,0,6.829,0.676,5.829,8.676s-11,27-11,27s-5-3-6-8s0-14,0-14"/>
		<path fill="#1D1F2A" d="M477.5,332.5c0,0,9,6,8,15s-14,25-14,25s-6-5-4-12s3-14,3-14"/>
		<path fill="#1D1F2A" d="M480.5,359.5c0,0,7,10,7,17s-2,19-2,19l-15-9c0,0-0.099-12.131,1.45-14.565"/>
		<path fill="#1D1F2A" d="M361.5,336.5c0,0,30-10,36-28s8-52,6-67s-2-46-11-62s-12-9.5-12-9.5L338,197l-17,38l-3,50l14,28l4,32l9,17
			l-7,14l11,16l130,10l-19-209l-12-9l-73,1L361.5,336.5z"/>
		<path fill="#1D1F2A" d="M461.5,325.5c0,0-39,4-47-16s-11-43-11-43"/>
		<path fill="#1D1F2A" d="M340.5,368.5c-5,7-7,13-7,18s5.453,3.801,10.227-1.599"/>
		<polygon fill="#1D1F2A" points="958,1074 993,1007 999,957 924,826 570,809 572,1025 630,1082 670,1101 686,1156 		"/>
	</g>
</g>
<g id="Layer_2">
	<path fill="none" stroke="#DA1984" stroke-width="5" stroke-miterlimit="10" d="M458.5,1225.5c0,0-1,29,0,70s7,68,7,68
		s-12,31-14,50s4,54,1,98s-5,64-5,64l-27,35c0,0-15,16-19,28s-17,53-17,53s3,14,12,23s11,11,11,11h20c0,0,1,13,1,19s-4,34,8,41
		s39,18,50,20s24,7,28,1s0-27-2-38s-3-19-7-26s-8-13-8-28s2-52,2-59s3-19,4-18s5,5,6,3s-2-20-2-20s4-4,4-10s-1-6-1-6l-9-1l4-22
		c0,0,8.735-36.779,19-74c10.46-37.925,22.477-76.401,25-87c5-21,4-37,4-54s-3-16,0-24s1-36,2-48s9-61,9-61"/>
	<path fill="none" stroke="#DA1984" stroke-width="5" stroke-miterlimit="10" d="M417.5,1611.5c-7-3-13-2-13-2s-7.54-17.727-10-41
		c-5.658-53.519-9.303-142.668-10-158c-1-22-6-45-3-48s4-36,5-38s15-32,17-53s3-24,0-32s-2-14-2-14"/>
	<path fill="none" stroke="#DA1984" stroke-width="5" stroke-miterlimit="10" d="M301.5,1220.5c0,0,2,21,3,34s-3,27-3,39
		s-5.798,68.685,0,117c9,75,46,177,49,186s7,26,6,29s-5-2-4,2s0,30,3,40s3,10,4,15s5,7,3,18s9,51,11,58s6,24,6,24s30,1,33,0
		s10-9,9-11"/>
	<path fill="none" stroke="#DA1984" stroke-width="5" stroke-miterlimit="10" d="M649.5,1093.5c0,0,1,49,0,63s-5,92-5,100
		s-8,10-26,18s-27,7-27,7l9-40c0,0-7-6-19-8s-38-4-38-4s-7,22-9,24s-36,3-40,0s-2-31-2-31s-4,1-22,3s-56,1-76,0s-23,3-29,6
		s-9,0-14,0s-57-15-57-15l-17,45c0,0-11-1-18-2s-34-20-37-24s3-22,3-22s-6-1-19-7s-57-22-57-22s13-44,20-60s21-80,24-91s17-75,22-95
		s8-53,7-66s6-16,6-16s5-27,12-48s6-52,7-62s-1-41-1-53s6-31,3-41c-0.712-2.374-7.85-13.316-18.511-28.624
		c-4.703-6.754-12.665-2.284-18.489-10.376c-6.805-9.454-11.632-31.649-19.23-41.863c-8.901-11.965-18.965-10.845-27.77-22.137
		c-24.078-30.883-44.511-69-50-69c-14,0-7-6-14-17s-2-19-4-32s0-22,8-29c3.197-2.798,24.923,3.829,50.239,12.282
		c10.194,3.404,21.377,1.217,31.761,4.718c6.503,2.192,12.445,10.194,18.4,12.108c7.493,2.408,12.831-4.64,18.6-3.108
		c9.634,2.558,9,15,19,11c9.285-3.714,16-5,20-8s19-6,23-8s20-3,27-5s18-10,18-10s6-19,12-26s10-8,14-10s8,0,10,0s10-2,10-2s4,1,7,3
		s21-2,28-3s25,3,33,5s25,14,33,18s21,16,30,19s50,13,64,27s19,39,22,49s6,21,6,21"/>
	<path fill="none" stroke="#DA1984" stroke-width="5" stroke-miterlimit="10" d="M661.795,1097.367c0,0-8.295-7.867-15.295-13.867
		c-5.475-4.693-12-12-12-12s-6-1-7-4"/>
	<polyline fill="none" stroke="#DA1984" stroke-width="5" stroke-miterlimit="10" points="646.5,1091.5 635.5,1075.5 630.5,1068.5 	
		"/>
	<path fill="none" stroke="#DA1984" stroke-width="5" stroke-miterlimit="10" d="M706.577,1103.805c0,0-8.077-3.305-14.077-6.305
		s-20-11-27-16s-23-20-23-20s-7-3-6-9"/>
	<path fill="none" stroke="#DA1984" stroke-width="5" stroke-miterlimit="10" d="M125.5,405.5c0,0-15.013-5.23-17.15-4.573
		c-2.137,0.657-14.828-1.059-23.211-5.501c-8.382-4.442-18.835-11.056-24.558-8.362c-5.722,2.694-15.719,6.701-21.442,9.394
		s-15.096,10.252-19.472,15.807s-7.337,11.143-7.404,13.971s9.14,2.338,9.14,2.338s-4.476,9.796-5.233,11.9
		c-0.757,2.104,1.313,4.275,2.694,5.722c0,0-2.137,0.657-1.481,2.794c0.657,2.137,4.108,5.756,9.863,1.648
		c5.756-4.108,7.203-5.488,7.203-5.488s2.137-0.657,7.826-1.937s25.382,3.43,28.176,4.911c2.794,1.481,8.416,3.029,11.934,3.819
		s5.689-1.28,5.689-1.28S92.5,442.5,96.5,445.5"/>
	<path fill="none" stroke="#DA1984" stroke-width="5" stroke-miterlimit="10" d="M49.137,392.452c0,0-13.314-5.266-13.381-2.439
		c-0.067,2.828,3.35,7.86,3.35,7.86"/>
	<path fill="none" stroke="#DA1984" stroke-width="5" stroke-miterlimit="10" d="M331.5,408.5c0,0,28-9,42-12s29-5,35-1s27,9,41,11
		s55.802,4.656,55.802,4.656"/>
	<line fill="none" stroke="#DA1984" stroke-width="5" stroke-miterlimit="10" x1="492.5" y1="1220.5" x2="465.5" y2="996.5"/>
	<path fill="none" stroke="#DA1984" stroke-width="5" stroke-miterlimit="10" d="M523.5,706.5c0,0,9,8,3,16s-16,17-11,33s13,22,9,32
		s-13,27-10,41s7,23,14,25s4-1,9,6s2,9,0,15s-8,27-3,31s46.625,27.5,46.625,27.5"/>
	<path fill="none" stroke="#DA1984" stroke-width="5" stroke-miterlimit="10" d="M587.5,592.5c0,0-14,75-18,88s-25,73-31,81
		s-14,26-14,26"/>
	<path fill="none" stroke="#DA1984" stroke-width="5" stroke-miterlimit="10" d="M562.5,542.5c-2,18,6,43,7,66s-2,47-4,68
		s-8.429,40.026-8.429,40.026"/>
	<path fill="none" stroke="#DA1984" stroke-width="5" stroke-miterlimit="10" d="M501.5,1598.5c0,0-13-14-24-18s-30-5-30-5"/>
	<path fill="none" stroke="#DA1984" stroke-width="5" stroke-miterlimit="10" d="M354.5,1628.5c0,0,6,7,24,4
		s30.91-8.328,30.91-8.328l-4.91-14.672"/>
	<path fill="none" stroke="#DA1984" stroke-width="5" stroke-miterlimit="10" d="M351.5,1231.5c0,0,9-33,12-49s4-125,10-145
		s-4-60-4-60"/>
	<path fill="none" stroke="#DA1984" stroke-width="5" stroke-miterlimit="10" d="M271.5,981.5c0,0-9,56-21,88s-16,120-19,129
		s-5,15-5,15"/>
	<path fill="none" stroke="#DA1984" stroke-width="5" stroke-miterlimit="10" d="M637.5,963.5c0,0-1-7,0-14s-4-13-2-19s-6-23-6-23
		s-14-41-20-48s-1-26,0-34s-8-62-10-86s-5-93-3-118s5-125,6-142s-2-22,3-27s20-27,32-33c2.26-1.13,4.449-3.075,6.513-5.489
		C652.912,403.606,659.5,384.5,659.5,384.5s29.163-26.55,34-33c9-12,35-35,59-47s46-24,77-22s39,19,39,19l2,16l6,3c0,0,3-8,7-6
		s25,20,25,20l11,14c0,0-1,9,2,8s5-5,9-4s16,9,19,12s6,7,6,11s-1,6-1,6s21,9,24,12s26,22,34,43s27,61,28,85s14,88,17,114s1,65,0,81
		s-4,55-10,84s-7,44-10,57s-5,30-12,38s-11,17-9,24s0,12-6,17s-8,23-10,30s1,13-4,14s-22-2-22-2l3-16"/>
	<path fill="none" stroke="#DA1984" stroke-width="5" stroke-miterlimit="10" d="M644.5,414.5l25-17c0,0,15-10,25-7s71,35,82,41
		s45,33,60,38s29,11,36,8s46-16,51-20s31-20,31-29s0-49,0-49"/>
	<path fill="none" stroke="#DA1984" stroke-width="5" stroke-miterlimit="10" d="M921.5,356.5c0,0,4,19-2,26s-17,27-27,32
		s-15,11-32,7s-75-24-86-28s-33-14-33-14"/>
	<path fill="none" stroke="#DA1984" stroke-width="5" stroke-miterlimit="10" d="M673.5,393.5c0,0,3-13,24-30s34-29,46-35
		s43-18,58-19s35,10,35,10s10-10,17-9s19.467,8.233,19.467,8.233"/>
	<path fill="none" stroke="#DA1984" stroke-width="5" stroke-miterlimit="10" d="M630.5,1085.5c0,0-3,9,0,12s9,4,12,2s4-6,4-6"/>
	<path fill="none" stroke="#DA1984" stroke-width="5" stroke-miterlimit="10" d="M659.5,1097.5c0,0-1,13,2,20s3,14,9,16s10-2,10-4
		s0-10-2-14s-3-10-3-10"/>
	<path fill="none" stroke="#DA1984" stroke-width="5" stroke-miterlimit="10" d="M698.5,1115.5l3,8c0,0,7,7,5,12s-6,7-10,6
		c-4.851-1.213-10-8-12-11s-5-11-5-11"/>
	<path fill="none" stroke="#DA1984" stroke-width="5" stroke-miterlimit="10" d="M710.5,1103.5c0,0,0,8,1,13s4,15,9,18s11,3,13,0
		s2-7-1-11s-2-12-2-16s-1-21,1-27s4-14,4-14s2,5,4,9s0,15,3,21s5,10,11,12s11,0,9-6s-5-4-4-12s-1-17-2-23s0-18-3-23s-10-18-10-18
		l-35,19l-33,12c0,0-15,0-17-14s2-21,0-29s-15-37-15-37l-4.93-9.038L631.5,955.5l-18-83l-21-3c0,0-8,17-7,28s-3,21-4,26s0,20,3,26
		s3,20,7,28s15,43,18,52s9,29,12,36s7,19,13,23s13,3,23,7s23,12,29,15s14,6,18,5s5-5,3-8s-2-4,1-4s7-3,2-9s-21-18-30-26
		s-11-12-11-12"/>
	<path fill="none" stroke="#DA1984" stroke-width="5" stroke-miterlimit="10" d="M698.5,509.5c0,0,6,160,5,175s-1,95,2,105
		s10,110,9,122s-3,46,4,61s24,52,24,52"/>
	<path fill="none" stroke="#DA1984" stroke-width="5" stroke-miterlimit="10" d="M994.5,488.5c0,19,10,35,12,49s-9,56-10,75
		s-17,118-20,124s-3,63,2,89s3,66,10,82s13,36,2,44s-41,31-97,36s-121,13-140,6s-33-16.702-33-16.702"/>
	<path fill="none" stroke="#DA1984" stroke-width="5" stroke-miterlimit="10" d="M974.5,978.5c0,0,4,25,4,42s3,53-2,84
		c-0.864,5.358-3.922,29.125-4,93c0,0,2,37,0,46s-13,35-10,40s6-1,10,4s3,11,1,14s-4,9-3,10s7,2,8,6s1,5-2,10s-1,8,1,10s3,4,3,8
		s1,5,4,8s2,7,1,10s0,7,2,9s3,10,4,13s11,52,14,75s4,55,5,73s15,46,18,49s15,21,14,29s1,16-6,18s-13,3-13,3s4,3,4,8s-1,14-1,18
		s3,20-1,23s-13,16-30,18s-47,4-47,4s-17-26-20-36s-1-19-4-25s-17-10-14-19s7-61,7-61s-18-39-23-65s-12-60-9-72c0,0,2-11,0-15
		s-17-26-19-38s0-23-3-26s-9-5-13-14s-5-18-6-27s-6-49-7-57s-5-58-6-68s-2-30-2-30s-3,25-2,31s3,61,5,79s3,59,4,69s4,30,2,37
		s-5,8-5,8s3,12,4,15s3,11,5,19s13,93,13,93s7,38,6,50s-5,72-5,72s-3,20,0,27s8,9,6,12s-6,17-6,17s3,4,0,10s-6,39-6,39s-24,7-46,1
		s-46-16-49-30s-9-29-10-30s-13-23-9-37s9-54,11-60s3-13,0-20s-5-26-7-31s-28-91-24-99s11-19,10-27s-14-18-16-28s-3-29-3-37
		s-1-29-3-39s-10-45-12-53c-1.026-4.105-6.167-29.411-10-55c-3.636-24.274-6-49-6-49"/>
	<path fill="none" stroke="#DA1984" stroke-width="5" stroke-miterlimit="10" d="M974.5,971.5c0,0-5,10-18,13
		s-34.591-1.405-34.591-1.405"/>
	<path fill="none" stroke="#DA1984" stroke-width="5" stroke-miterlimit="10" d="M906.5,987.5c0,0,0,19,0,26s-8,73-10,80s-5,22-5,22
		l46,25c0,0,33-20,37-35s4.018-18.499,4.018-18.499"/>
	<path fill="none" stroke="#DA1984" stroke-width="5" stroke-miterlimit="10" d="M762.948,1107.415l9.552,4.085c0,0,27-18,29-22
		s3-16,2-26s-6-14-6-14s-1-23,0-33s2-20.253,2-20.253"/>
	<line fill="none" stroke="#DA1984" stroke-width="5" stroke-miterlimit="10" x1="744" y1="1100.5" x2="730.257" y2="1096.253"/>
	<path fill="none" stroke="#DA1984" stroke-width="5" stroke-miterlimit="10" d="M751.5,1686.5l-9,10c0,0-18,3-25,3s-20,4-22,16
		s-3,31,6,37s58,28,58,28s26.049,16.117,34,17c9,1,37,1,47-2s16-3,15-15s-1-23-3-34s-6.231-16.971-6.231-16.971"/>
	<path fill="none" stroke="#DA1984" stroke-width="5" stroke-miterlimit="10" d="M951.486,1703.295l4.014,10.205c0,0-7,7-4,23
		c1.364,7.273,3.347,15.786,5.106,22.909c2.11,8.546,3.894,15.091,3.894,15.091s12,3,22,1s37-4,46-12s36-32,36-32s6-13,3-22
		s-16-14-22-18s-10-12-12-13s-6.028-2.481-6.028-2.481"/>
	<path fill="none" stroke="#DA1984" stroke-width="5" stroke-miterlimit="10" d="M958.5,1760.5c0,0,25-1,36-4s33-7,48-19
		s24-25,24-25"/>
	<path fill="none" stroke="#DA1984" stroke-width="5" stroke-miterlimit="10" d="M694.191,1728.248c0,0,5.309,11.252,17.309,18.252
		s69,30,69,30s10,4,37,2s37.394-6.774,37.394-6.774"/>
	<path fill="none" stroke="#DA1984" stroke-width="5" stroke-miterlimit="10" d="M996.5,980.5c0,0,2,14,0,19s-1,13-6,20
		s-12,14-12,14"/>
	<path fill="none" stroke="#DA1984" stroke-width="5" stroke-miterlimit="10" d="M869.575,311.71c0,0,10.253-18.354,22.305-31.345
		c12.052-12.991,20.51-34.472,24.955-50.132c4.444-15.66,1.241-56.351-4.15-70.205c-5.391-13.854-26.009-39.756-38.105-51.362
		s-19.253-12.935-29.984-11.574c-10.731,1.361-9.847-4.902-13.428-6.684c-3.581-1.782-9.39,0.911-9.39,0.911
		s-5.375-4.91-12.533-6.239c-7.158-1.329-42.004,19.305-48.708,21.553c-6.704,2.248-25.894,25.09-31.699,30.02
		c-5.805,4.93,5.001,46.054,5.001,46.054l-16.03,38.936l3.151,11.622c0,0-13.818,25.516-14.256,30.883
		c-0.438,5.367,6.796,66.352,6.796,66.352"/>
	<path fill="none" stroke="#DA1984" stroke-width="5" stroke-miterlimit="10" d="M752.312,260.042c0,0,4.468-2.244,8.491-3.593
		c4.023-1.349,7.591-6.275,8.479-10.301"/>
	<path fill="none" stroke="#DA1984" stroke-width="5" stroke-miterlimit="10" d="M784.119,290.396c0,0-8.534-21.004-5.423-31.743
		c3.111-10.739,3.975-28.182,0.386-34.436s-8.537-7.88-8.537-7.88"/>
	<path fill="none" stroke="#DA1984" stroke-width="5" stroke-miterlimit="10" d="M733.839,182.707c0,0-0.434,7.603-0.418,16.548
		s0.048,26.833-1.735,30.414s2.256,11.176,6.716,4.46c4.46-6.716,12.044-17.463,12.044-17.463s1.313-16.102,8.021-16.114
		c6.708-0.012,10.289,1.771,11.642,8.029c1.353,6.259-0.422,14.312-0.422,14.312s-14.709,27.306-16.492,30.887
		c-1.782,3.581-2.654,16.552-8.029,11.642c-5.375-4.91-2.702-10.281,2.2-20.129c4.902-9.847,9.808-17.459,9.354-21.036
		c-0.454-3.577,1.771-10.289,4.452-11.188c2.682-0.899,1.779-5.817-0.012-6.708"/>
	<path fill="none" stroke="#DA1984" stroke-width="5" stroke-miterlimit="10" d="M326.5,197.5c0-3,4-6,7-7l2-2c0,0,31-20,38-22
		s19,2,19,2s16-5,30,0s20.451,6.45,23,9c6,6,10,11,10,11"/>
	<path fill="none" stroke="#DA1984" stroke-width="5" stroke-miterlimit="10" d="M339.5,191.5c1.65,2.19,6.629,11.79,4.808,17.329
		s-8.96,10.233-12.64,12.093s-9.09,5.136-9.09,5.136s-2.964-8.556-3.094-13.654c-0.13-5.097,3.421-12.054,7.634-16.085
		c4.213-4.031,10.286-4.382,14.408-4.29"/>
	<path fill="none" stroke="#DA1984" stroke-width="5" stroke-miterlimit="10" d="M332.11,222.872c0,0,6.073-0.351,5.227,4.968
		s-1.158,8.465-8.076,14.134c-6.918,5.669-19.87,20.908-19.87,20.908s-2.677-13.44,1.965-23.003
		C319.744,222.599,332.11,222.872,332.11,222.872z"/>
	<path fill="none" stroke="#DA1984" stroke-width="5" stroke-miterlimit="10" d="M328.195,246.317
		c2.793,0.444,2.964,8.556-0.495,11.391s-8.076,14.134-10.339,17.723c-2.263,3.589-5.059,9.349-5.059,9.349
		s-7.216-13.745-3.666-20.702C312.187,257.122,322.876,245.472,328.195,246.317z"/>
	<path fill="none" stroke="#DA1984" stroke-width="5" stroke-miterlimit="10" d="M328.896,258.463
		c3.056,4.434,8.725,11.353,10.051,17.204c1.326,5.852,1.014,8.998,1.014,8.998s-6.073,0.351-11.521-5.592
		s-8.986-8.366-7.126-11.276"/>
	<path fill="none" stroke="#DA1984" stroke-width="5" stroke-miterlimit="10" d="M323.434,275.081c0,0,6.462,14.941,4.329,23.628
		c-2.133,8.686-1.263,11.792-1.263,11.792s-3-2-11-14c-5.114-7.671-1.241-17.27-1.241-17.27l5.495-8.305L323.434,275.081z"/>
	<path fill="none" stroke="#DA1984" stroke-width="5" stroke-miterlimit="10" d="M327.686,280.269c0,0,9.882,2.887,13.159,8.297
		s6.02,12.991,5.266,14.187c-0.754,1.196-3.992,5.006-9.219,0.039s-8.72-9.071-8.72-9.071l-2.96-13.916L327.686,280.269z"/>
	<path fill="none" stroke="#DA1984" stroke-width="5" stroke-miterlimit="10" d="M340.701,306.03c0,0,0.702,12.145-1.874,18.881
		c-2.575,6.736-6.438,16.839-6.438,16.839s-2.21-9.753-4.42-19.505c-2.21-9.753-1.68-18.128-1.68-18.128"/>
	<path fill="none" stroke="#DA1984" stroke-width="5" stroke-miterlimit="10" d="M344.602,305.146c0,0,5.76,2.796,7.086,8.648
		c1.326,5.852,1.144,14.096,1.144,14.096s-6.865-7.672-10.012-7.985s-2.681-1.443-2.681-1.443"/>
	<path fill="none" stroke="#DA1984" stroke-width="5" stroke-miterlimit="10" d="M352.078,329.086c0,0,1.326,5.852-3.421,12.054
		s-8.388,17.281-7.946,19.232c0.442,1.951-7.086-8.648-8.946-12.328c-1.859-3.68,1.51-8.609,1.51-8.609"/>
	<path fill="none" stroke="#DA1984" stroke-width="5" stroke-miterlimit="10" d="M353.716,331.791c0,0,7.932,3.329,8.504,10.377
		s-0.716,10.416-0.716,10.416s-7.711-2.354-10.103-3.863c-2.393-1.509-4.031-4.213-4.031-4.213"/>
	<path fill="none" stroke="#DA1984" stroke-width="5" stroke-miterlimit="10" d="M358.357,352.271c0,0,2.08,4.655,4.473,6.164
		c2.393,1.509,4.694,7.139,3.185,9.532c-1.509,2.393-6.515,3.533-6.515,3.533s-8.465-6.291-12.145-4.431s-8.556,2.964-8.465-1.158
		c0.091-4.122,2.006-7.614,2.006-7.614"/>
	<path fill="none" stroke="#DA1984" stroke-width="5" stroke-miterlimit="10" d="M349.306,366.627"/>
	<path fill="none" stroke="#DA1984" stroke-width="5" stroke-miterlimit="10" d="M342.9,351.933"/>
	<path fill="none" stroke="#DA1984" stroke-width="5" stroke-miterlimit="10" d="M460.257,382.712c0,0-3.757-15.212-3.757-25.212
		s6-32,6-32"/>
	<path fill="none" stroke="#DA1984" stroke-width="5" stroke-miterlimit="10" d="M456.5,188.5c0,0-4,2-3,7s2,9,2,9s2-3,5-4s3-2,3-2
		s0-4-2-6S456.5,188.5,456.5,188.5z"/>
	<path fill="none" stroke="#DA1984" stroke-width="5" stroke-miterlimit="10" d="M464.5,200.5c0,0,6,4,7,9s0,13-4,17s-7,12-7,12
		s-6-10-5-19s0-13,3-16S464.5,200.5,464.5,200.5z"/>
	<path fill="none" stroke="#DA1984" stroke-width="5" stroke-miterlimit="10" d="M469.5,225.5c0,0,1,1,4,6c6,10,3,18,3,18l-14,6
		c0,0-3,0-4-8s2-8,4-12S469.5,225.5,469.5,225.5z"/>
	<path fill="none" stroke="#DA1984" stroke-width="5" stroke-miterlimit="10" d="M462.5,255.5c-6,5-5,23-4,26s3,8,3,8s9-14,12-18
		s8-9,6-13s-3-7-3-7S468.5,250.5,462.5,255.5z"/>
	<path fill="none" stroke="#DA1984" stroke-width="5" stroke-miterlimit="10" d="M462.5,286.5c-2,4-5,9-4,12s2,11,2,11s13-16,16-20
		s5-10,3-14s-3-7-3-7L462.5,286.5z"/>
	<path fill="none" stroke="#DA1984" stroke-width="5" stroke-miterlimit="10" d="M463.5,305.5c-2,4-5,9-4,12s2,11,2,11s8-10,11-14
		s10-6,11-13c0.632-4.427-6-14-6-14L463.5,305.5z"/>
	<path fill="none" stroke="#DA1984" stroke-width="5" stroke-miterlimit="10" d="M473.671,312.824c0,0,6.829,0.676,5.829,8.676
		s-11,27-11,27s-5-3-6-8s0-14,0-14"/>
	<path fill="none" stroke="#DA1984" stroke-width="5" stroke-miterlimit="10" d="M475.5,332.5c0,0,9,6,8,15s-14,25-14,25s-6-5-4-12
		s3-14,3-14"/>
	<path fill="none" stroke="#DA1984" stroke-width="5" stroke-miterlimit="10" d="M478.5,359.5c0,0,7,10,7,17s-2,19-2,19l-15-9
		c0,0-0.099-12.131,1.45-14.565"/>
	<path fill="none" stroke="#DA1984" stroke-width="5" stroke-miterlimit="10" d="M359.5,336.5c0,0,30-10,36-28s8-52,6-67
		s-2-46-11-62s-12-14-12-14"/>
	<path fill="none" stroke="#DA1984" stroke-width="5" stroke-miterlimit="10" d="M459.5,325.5c0,0-39,4-47-16s-11-43-11-43"/>
	<path fill="none" stroke="#DA1984" stroke-width="5" stroke-miterlimit="10" d="M338.5,368.5c-5,7-7,13-7,18
		s5.453,3.801,10.227-1.599"/>
</g>
</svg>
