<?xml version="1.0" encoding="utf-8"?>
<!-- Generator: Adobe Illustrator 17.0.0, SVG Export Plug-In . SVG Version: 6.00 Build 0)  -->
<!DOCTYPE svg PUBLIC "-//W3C//DTD SVG 1.1//EN" "http://www.w3.org/Graphics/SVG/1.1/DTD/svg11.dtd">
<svg version="1.1" id="Layer_1" xmlns="http://www.w3.org/2000/svg" xmlns:xlink="http://www.w3.org/1999/xlink" x="0px" y="0px"
	 width="2963.407px" height="1930.73px" viewBox="0 0 2963.407 1930.73" enable-background="new 0 0 2963.407 1930.73"
	 xml:space="preserve">
<g>
	
		<line fill="none" stroke="#DA1984" stroke-width="5" stroke-linejoin="round" stroke-miterlimit="10" x1="2890.821" y1="1219.227" x2="2197.25" y2="1534.122"/>
	<path fill="none" stroke="#DA1984" stroke-width="5" stroke-linejoin="round" stroke-miterlimit="10" d="M2889.875,1262.429"/>
	<path fill="none" stroke="#DA1984" stroke-width="5" stroke-linejoin="round" stroke-miterlimit="10" d="M1509.665,1829.087
		l-14.947,71.748l-71.748,29.895l-73.741-27.902l-21.923-77.727L166.38,1476.325l-8.968,32.81l-6.892,24.148l-50.521-15.158
		l-11.014-45.981L74.702,1026.57l65.769-8.636l14.948-164.423c0,0,15.944-38.864,54.808-43.846l670.315-79.388
		c0,0,55.804-43.846,116.923-54.476c61.119-10.629,160.769-33.217,215.245-26.573c54.475,6.643,112.937,1.329,112.937,1.329
		s172.727-90.35,197.972-96.993c25.245-6.643,71.748-2.99,71.748-2.99l-11.46-469.353c0,0-0.747-15.944,24.165-15.944
		c24.913,0,1259.705,8.969,1259.705,8.969s39.922-3.986,39.922,19.93c0,21.107-11.302,1121.042-11.302,1121.042"/>
	<polygon fill="none" stroke="#DA1984" stroke-width="5" stroke-linejoin="round" stroke-miterlimit="10" points="
		1322.614,1823.691 1432.604,1860.311 1509.665,1829.087 1500.366,1379.996 140.471,1017.933 74.702,1026.57 88.801,1447.645 
		166.38,1476.325 164.388,1170.398 1316.345,1514.192 	"/>
	<polyline fill="none" stroke="#DA1984" stroke-width="5" stroke-linejoin="round" stroke-miterlimit="10" points="
		2851.84,1235.438 2851.84,928.248 2102.761,1179.377 	"/>
	<path fill="none" stroke="#DA1984" stroke-width="5" stroke-linejoin="round" stroke-miterlimit="10" d="M2192.411,1525.882"/>
	<polyline fill="none" stroke="#DA1984" stroke-width="5" stroke-linejoin="round" stroke-miterlimit="10" points="
		1765.104,1291.309 1499.37,1379.996 1508.17,1829.087 1722.486,1734.118 	"/>
	<path fill="none" stroke="#DA1984" stroke-width="5" stroke-linejoin="round" stroke-miterlimit="10" d="M2896.311,1216.237
		l-43.357,16.941l7.308-1119.406c0,0-4.96-16.327,14.371-26.573s31.671,0,31.671,0L2896.311,1216.237z"/>
	<path fill="none" stroke="#DA1984" stroke-width="5" stroke-linejoin="round" stroke-miterlimit="10" d="M1310.938,651.557
		c0,0,245.897,10.957,398.694,33.544c9.75,1.441,20.733,3.213,32.764,5.277c176.516,30.287,578.565,123.66,619.614,163.464
		c43.846,42.517,79.72,144.825,59.79,176.713c-19.93,31.888-41.329,55.38-41.329,55.38l-216.016,72.094
		c0,0,10.212-46.425,19.513-69.012c9.301-22.587-27.902-167.819-79.72-184.224c-51.818-16.405-257.762-42.979-348.112-60.251
		c-90.35-17.273-523.496-78.392-573.986-87.692c-50.49-9.301-291.172-34.112-291.172-34.112"/>
	<path fill="none" stroke="#DA1984" stroke-width="5" stroke-linejoin="round" stroke-miterlimit="10" d="M1742.396,690.378
		c0,0,149.43-74.036,172.35-80.513c22.92-6.477,93.173-4.484,125.559,0s147.649,28.068,235.341,47.998s145.49,52.482,145.49,52.482
		s-30.56,40.524-67.762,60.455c-37.203,19.93-97.781,39.598-97.781,39.598"/>
	<path fill="none" stroke="#DA1984" stroke-width="5" stroke-linejoin="round" stroke-miterlimit="10" d="M1586.044,550.026
		c0,0,123.588,19.48,172.749,32.103c49.161,12.622,127.914,39.184,127.914,39.184"/>
	<path fill="none" stroke="#DA1984" stroke-width="5" stroke-linejoin="round" stroke-miterlimit="10" d="M2093.618,612.689
		c35.21-11.294,179.371-35.874,268.392-20.594s157.115,39.87,227.867,59.463s186.346,61.446,183.357,71.411
		c-2.99,9.965-53.811,39.86-105.629,56.801s-124.563,44.843-196.311,45.839c-71.748,0.996-166.81-32.892-166.81-32.892"/>
	<path fill="none" stroke="#DA1984" stroke-width="5" stroke-linejoin="round" stroke-miterlimit="10" d="M2809.107,935.223
		c0,0,13.951-94.668-10.961-113.601c-24.913-18.934-138.514-31.888-138.514-31.888"/>
	<path fill="none" stroke="#DA1984" stroke-width="5" stroke-linejoin="round" stroke-miterlimit="10" d="M190.297,825.63
		c0,0,1141.993,252.094,1205.769,244.122c63.776-7.972,294.965-71.748,294.965-71.748"/>
	<path fill="none" stroke="#DA1984" stroke-width="5" stroke-linejoin="round" stroke-miterlimit="10" d="M1499.37,1371.692
		c0,0,25.241-61.783,10.295-105.629c-14.946-43.846-44.841-102.64-44.841-102.64"/>
	<path fill="none" stroke="#DA1984" stroke-width="5" stroke-linejoin="round" stroke-miterlimit="10" d="M1723.915,1646.727
		c1.993,22.92-28.899,183.357-6.976,190.332c21.923,6.976,54.808,5.979,54.808,5.979s62.78-9.965,84.703-13.951
		c21.923-3.986,30.892,0,30.892,0s-1.993,25.909,13.951,25.909c15.944,0,61.783-10.962,80.717-10.962s47.832,16.941,54.808,3.986
		c6.975-12.954,5.979-30.892,20.927-18.934c14.948,11.958,9.965,24.913,34.878,17.937c24.913-6.976,20.927-35.874,40.857-22.92
		c19.93,12.954,38.864,9.965,54.808,14.948s64.773,21.591,74.738,21.259c9.965-0.332,34.877-16.276,52.815-25.245
		c17.937-8.969,38.864-7.972,52.814-29.895c13.951-21.923,20.927-13.951-8.969-23.916c-29.895-9.965-97.657-23.579-102.64-27.734
		c-4.983-4.155-46.836-22.59-46.836-42.022c0-19.432,5.979-87.692-22.92-198.304c-16.472-63.05-51.948-218.781-93.671-349.773
		c-31.474-98.815-71.429-185.888-81.713-195.315c-23.916-21.923-26.906-32.959-183.357-63.315
		c-60.96-11.828-141.505-14.68-219.231-28.363c-121.754-21.435-236.25-52.543-255.105-56.801
		c-30.892-6.976-140.175-15.612-168.077-19.598c-27.902-3.986-166.748-33.217-191.329-40.524c-24.58-7.308-49.161-4.65-49.161,0
		c0,4.65-46.503-0.664-57.797-0.664s-89.685-27.238-88.357-11.294s14.613,21.259-7.309,22.587s-100.834-13.692-111.867-16.147
		c-11.034-2.455-29.635,15.482-42.922,26.112c-13.287,10.629-67.098,19.93-51.154,29.231s134.196,29.231,186.014,31.888
		s257.098,52.482,310.909,71.748c53.811,19.266,180.699,35.874,257.762,41.853c77.063,5.979,239.825,11.958,277.028,17.273
		s114.266,26.944,132.867,97.842c18.601,70.899,11.958,170.549-1.329,341.948S1723.915,1646.727,1723.915,1646.727z"/>
	<path fill="none" stroke="#DA1984" stroke-width="5" stroke-linejoin="round" stroke-miterlimit="10" d="M1765.104,1843.076
		c0,0,30.56-60.825,33.549-132.573c2.99-71.748,0-136.521,0-215.245s22.92-137.517,16.941-212.255
		c-5.979-74.738-15.944-244.143-83.706-291.976c-67.762-47.832-174.388-47.832-316.888-62.78s-180.367-23.455-180.367-23.455"/>
	<path fill="none" stroke="#DA1984" stroke-width="5" stroke-linejoin="round" stroke-miterlimit="10" d="M1887.342,1829.087
		c0,0-36.871-79.72-41.853-159.44c-4.982-79.72-11.958-224.213-9.965-306.923c1.993-82.71-5.979-267.063-47.832-328.846
		s-60.787-96.661-155.455-109.615"/>
	<path fill="none" stroke="#DA1984" stroke-width="5" stroke-linejoin="round" stroke-miterlimit="10" d="M2011.905,1847.273
		c0,0,7.972-39.113-1.993-89.934s-66.766-183.357-66.766-183.357"/>
	<path fill="none" stroke="#DA1984" stroke-width="5" stroke-linejoin="round" stroke-miterlimit="10" d="M2069.685,1843.076
		c0,0-4.966-32.425-5.962-70.79s4.949-45.839,5.962-77.727c1.013-31.888-29.38-132.535-41.338-175.883
		s-60.288-246.635-63.278-283.505c-2.99-36.871,0-102.64-14.948-153.462c-14.948-50.822-28.899-69.755-28.899-69.755"/>
	<path fill="none" stroke="#DA1984" stroke-width="5" stroke-linejoin="round" stroke-miterlimit="10" d="M2287.604,1843.076
		c0,0-63.112-54.514-100.315-82.416c-37.203-27.902-58.461-98.322-68.427-153.462c-9.965-55.14-32.552-220.559-34.545-245.14
		c-1.993-24.58-11.294-60.63-11.294-60.63"/>
	<path fill="none" stroke="#DA1984" stroke-width="5" stroke-linejoin="round" stroke-miterlimit="10" d="M2352.49,1778.999
		c-24.414-0.498-50.603,13.716-40.14,31.155c10.463,17.439,28.4,15.929,28.4,15.929"/>
	<path fill="none" stroke="#DA1984" stroke-width="5" stroke-linejoin="round" stroke-miterlimit="10" d="M1602.342,550.026
		c0,0,42.85-23.369,152.465-19.383s177.378,22.92,223.217,44.843c45.839,21.923,72.745,30.235,72.745,30.235l14.468,8.297"/>
	<polyline fill="none" stroke="#DA1984" stroke-width="5" stroke-linejoin="round" stroke-miterlimit="10" points="150.52,1533.283 
		198.269,1520.835 210.624,1489.617 	"/>
	
		<line fill="none" stroke="#DA1984" stroke-width="5" stroke-linejoin="round" stroke-miterlimit="10" x1="1316.345" y1="1514.192" x2="1417.324" y2="1402.583"/>
	<polyline fill="none" stroke="#DA1984" stroke-width="5" stroke-linejoin="round" stroke-miterlimit="10" points="
		164.388,1170.398 82.335,1025.567 1417.324,1402.583 1432.604,1860.311 1422.971,1930.73 	"/>
	<path fill="none" stroke="#DA1984" stroke-width="5" stroke-linejoin="round" stroke-miterlimit="10" d="M785.613,770.145
		c63.04,5.305,126.816,9.291,190.593,19.256s136.189,28.61,190,36.228s166.748,8.947,166.748,8.947"/>
	<path fill="none" stroke="#DA1984" stroke-width="5" stroke-linejoin="round" stroke-miterlimit="10" d="M703.828,808.668
		c0,0-5.979,1.329,98.986,12.622s133.531,7.972,205.944,30.559c72.413,22.587,126.888,41.189,188.671,39.86
		s205.28,15.538,267.063,13.084"/>
	
		<line fill="none" stroke="#DA1984" stroke-width="5" stroke-linejoin="round" stroke-miterlimit="10" x1="1687.84" y1="526.439" x2="1687.84" y2="506.439"/>
	<path fill="none" stroke="#DA1984" stroke-width="5" stroke-linejoin="round" stroke-miterlimit="10" d="M1706.975,466.535
		c15.28-24.58,90.35-73.741,90.35-73.741"/>
	<path fill="none" stroke="#DA1984" stroke-width="5" stroke-linejoin="round" stroke-miterlimit="10" d="M1703.653,271.884
		c0,0,12.622,41.853,42.517,63.112c29.895,21.259,51.154,39.86,51.154,39.86"/>
	<path fill="none" stroke="#DA1984" stroke-width="5" stroke-linejoin="round" stroke-miterlimit="10" d="M1591.38,253.947
		c0,0,29.231-3.986,56.469,0s23.916,9.965,23.916,9.965"/>
	<path fill="none" stroke="#DA1984" stroke-width="5" stroke-linejoin="round" stroke-miterlimit="10" d="M1778.723,166.255
		c-8.636,3.986-58.461,47.832-67.098,59.79c-8.636,11.958-11.958,21.259-11.958,21.259"/>
	<path fill="none" stroke="#DA1984" stroke-width="5" stroke-linejoin="round" stroke-miterlimit="10" d="M1803.303,71.919
		c0,0-12.622,8.636-13.951,28.566c-1.329,19.93,6.976,29.895,6.976,29.895"/>
	<path fill="none" stroke="#DA1984" stroke-width="5" stroke-linejoin="round" stroke-miterlimit="10" d="M1813.268,166.255
		c15.944,27.902,31.888,41.853,55.14,61.783c23.252,19.93,29.231,19.266,29.231,19.266"/>
	<path fill="none" stroke="#DA1984" stroke-width="5" stroke-linejoin="round" stroke-miterlimit="10" d="M2013.233,168.912
		c0,0-27.902,16.611-50.49,37.868s-39.196,40.526-39.196,40.526"/>
	<path fill="none" stroke="#DA1984" stroke-width="5" stroke-linejoin="round" stroke-miterlimit="10" d="M2041.812,68.287
		c-7.972,17.273-8.648,68.073-8.648,68.073"/>
	<path fill="none" stroke="#DA1984" stroke-width="5" stroke-linejoin="round" stroke-miterlimit="10" d="M2305.541,71.919
		c-14.615,15.28-21.259,41.853-21.259,52.483s6.644,30.559,6.644,30.559"/>
	<path fill="none" stroke="#DA1984" stroke-width="5" stroke-linejoin="round" stroke-miterlimit="10" d="M2583.898,74.245
		c0,0-19.432,23.916-17.937,42.85c1.495,18.934,8.927,44.843,8.927,44.843"/>
	<path fill="none" stroke="#DA1984" stroke-width="5" stroke-linejoin="round" stroke-miterlimit="10" d="M2545.532,184.856
		c-51.32,32.386-108.619,92.675-108.619,92.675"/>
	<path fill="none" stroke="#DA1984" stroke-width="5" stroke-linejoin="round" stroke-miterlimit="10" d="M2305.541,176.386
		c14.283,23.916,38.698,46.337,54.143,60.787s56.302,44.344,56.302,44.344"/>
	<path fill="none" stroke="#DA1984" stroke-width="5" stroke-linejoin="round" stroke-miterlimit="10" d="M2269.501,172.898
		c-41.853,22.92-96.163,89.685-96.163,89.685"/>
	<path fill="none" stroke="#DA1984" stroke-width="5" stroke-linejoin="round" stroke-miterlimit="10" d="M2173.338,292.479
		c0,0,13.453,26.906,48.081,58.295c34.629,31.39,57.548,47.334,57.548,47.334"/>
	<path fill="none" stroke="#DA1984" stroke-width="5" stroke-linejoin="round" stroke-miterlimit="10" d="M2041.812,168.912
		c24.901,28.899,52.305,54.309,66.754,67.762c14.449,13.453,35.874,30.393,35.874,30.393"/>
	<path fill="none" stroke="#DA1984" stroke-width="5" stroke-linejoin="round" stroke-miterlimit="10" d="M2131.485,296.465
		c-26.407,19.93-44.843,35.376-57.299,45.839s-28.899,32.386-28.899,32.386"/>
	<path fill="none" stroke="#DA1984" stroke-width="5" stroke-linejoin="round" stroke-miterlimit="10" d="M2049.772,415.049
		c0,0,12.456,29.397,38.614,49.327c26.158,19.93,61.534,50.323,61.534,50.323"/>
	<path fill="none" stroke="#DA1984" stroke-width="5" stroke-linejoin="round" stroke-miterlimit="10" d="M2267.01,424.515
		c-17.937,9.965-45.59,35.874-45.59,35.874l-44.095,46.337"/>
	<path fill="none" stroke="#DA1984" stroke-width="5" stroke-linejoin="round" stroke-miterlimit="10" d="M2305.541,429.498
		c0,0,24.747,38.365,46.171,59.292s59.292,48.33,59.292,48.33"/>
	<path fill="none" stroke="#DA1984" stroke-width="5" stroke-linejoin="round" stroke-miterlimit="10" d="M2549.02,443.947
		c-39.362,19.93-57.797,39.362-57.797,39.362l-52.316,46.876"/>
	<path fill="none" stroke="#DA1984" stroke-width="5" stroke-linejoin="round" stroke-miterlimit="10" d="M2402.534,564.026
		c-10.962,5.979-36.21,28.819-36.21,28.819"/>
	<path fill="none" stroke="#DA1984" stroke-width="5" stroke-linejoin="round" stroke-miterlimit="10" d="M2436.913,567.514
		c12.955,20.927,40.074,51.056,40.074,51.056"/>
	<path fill="none" stroke="#DA1984" stroke-width="5" stroke-linejoin="round" stroke-miterlimit="10" d="M2581.905,455.905
		c0,0,21.425,20.428,52.814,55.804c31.39,35.376,61.285,55.804,61.285,55.804"/>
	<path fill="none" stroke="#DA1984" stroke-width="5" stroke-linejoin="round" stroke-miterlimit="10" d="M2689.029,592.845
		c-27.902,12.536-85.102,62.721-85.102,62.721"/>
	<path fill="none" stroke="#DA1984" stroke-width="5" stroke-linejoin="round" stroke-miterlimit="10" d="M2436.913,311.745
		c22.089,40.524,112.107,106.958,112.107,106.958"/>
	<path fill="none" stroke="#DA1984" stroke-width="5" stroke-linejoin="round" stroke-miterlimit="10" d="M2696.004,326.36
		c-53.645,20.594-121.116,88.689-121.116,88.689"/>
	<path fill="none" stroke="#DA1984" stroke-width="5" stroke-linejoin="round" stroke-miterlimit="10" d="M2583.898,191.5
		c33.881,44.51,112.107,100.979,112.107,100.979"/>
	<path fill="none" stroke="#DA1984" stroke-width="5" stroke-linejoin="round" stroke-miterlimit="10" d="M2845.646,311.745
		c-62.448,2.657-109.615,0-109.615,0"/>
	<path fill="none" stroke="#DA1984" stroke-width="5" stroke-linejoin="round" stroke-miterlimit="10" d="M2852.954,584.122
		c-36.539,1.993-125.56-5.687-125.56-5.687"/>
	<path fill="none" stroke="#DA1984" stroke-width="5" stroke-linejoin="round" stroke-miterlimit="10" d="M1820.576,401.596
		c17.439,30.892,84.205,94.668,84.205,94.668"/>
	<path fill="none" stroke="#DA1984" stroke-width="5" stroke-linejoin="round" stroke-miterlimit="10" d="M2019.877,411.063
		c-36.372,21.425-96.329,79.222-96.329,79.222"/>
	
		<line fill="none" stroke="#DA1984" stroke-width="5" stroke-linejoin="round" stroke-miterlimit="10" x1="1937.665" y1="530.186" x2="1963.466" y2="568.959"/>
	
		<line fill="none" stroke="#DA1984" stroke-width="5" stroke-linejoin="round" stroke-miterlimit="10" x1="1900.795" y1="521.675" x2="1878.135" y2="543.814"/>
	
		<line fill="none" stroke="#DA1984" stroke-width="5" stroke-linejoin="round" stroke-miterlimit="10" x1="2144.44" y1="540.11" x2="2059.466" y2="610.708"/>
	
		<line fill="none" stroke="#DA1984" stroke-width="5" stroke-linejoin="round" stroke-miterlimit="10" x1="2177.324" y1="543.814" x2="2207.333" y2="592.461"/>
	<path fill="none" stroke="#DA1984" stroke-width="5" stroke-linejoin="round" stroke-miterlimit="10" d="M1676.083,487.793
		c0,0-44.843-1.993-61.783-4.484c-16.941-2.491-20.758-7.441-20.758-7.441"/>
	
		<ellipse fill="none" stroke="#DA1984" stroke-width="5" stroke-linejoin="round" stroke-miterlimit="10" cx="1692.525" cy="486.174" rx="16.442" ry="20.553"/>
	
		<ellipse fill="none" stroke="#DA1984" stroke-width="5" stroke-linejoin="round" stroke-miterlimit="10" cx="1688.539" cy="262.957" rx="16.442" ry="20.553"/>
	
		<ellipse fill="none" stroke="#DA1984" stroke-width="5" stroke-linejoin="round" stroke-miterlimit="10" cx="1804.134" cy="382.538" rx="16.442" ry="20.553"/>
	
		<ellipse fill="none" stroke="#DA1984" stroke-width="5" stroke-linejoin="round" stroke-miterlimit="10" cx="1911.756" cy="262.957" rx="16.442" ry="20.553"/>
	
		<ellipse fill="none" stroke="#DA1984" stroke-width="5" stroke-linejoin="round" stroke-miterlimit="10" cx="1796.162" cy="151.349" rx="16.442" ry="20.553"/>
	
		<ellipse fill="none" stroke="#DA1984" stroke-width="5" stroke-linejoin="round" stroke-miterlimit="10" cx="2031.337" cy="155.335" rx="16.442" ry="20.553"/>
	
		<ellipse fill="none" stroke="#DA1984" stroke-width="5" stroke-linejoin="round" stroke-miterlimit="10" cx="2031.337" cy="394.496" rx="16.442" ry="20.553"/>
	
		<ellipse fill="none" stroke="#DA1984" stroke-width="5" stroke-linejoin="round" stroke-miterlimit="10" cx="2158.889" cy="274.915" rx="16.442" ry="20.553"/>
	
		<ellipse fill="none" stroke="#DA1984" stroke-width="5" stroke-linejoin="round" stroke-miterlimit="10" cx="2282.455" cy="167.293" rx="16.442" ry="20.553"/>
	
		<ellipse fill="none" stroke="#DA1984" stroke-width="5" stroke-linejoin="round" stroke-miterlimit="10" cx="2282.455" cy="410.44" rx="16.442" ry="20.553"/>
	
		<ellipse fill="none" stroke="#DA1984" stroke-width="5" stroke-linejoin="round" stroke-miterlimit="10" cx="2158.889" cy="526.034" rx="16.442" ry="20.553"/>
	
		<ellipse fill="none" stroke="#DA1984" stroke-width="5" stroke-linejoin="round" stroke-miterlimit="10" cx="2425.952" cy="290.859" rx="16.442" ry="20.553"/>
	
		<ellipse fill="none" stroke="#DA1984" stroke-width="5" stroke-linejoin="round" stroke-miterlimit="10" cx="2421.966" cy="545.964" rx="16.442" ry="20.553"/>
	
		<ellipse fill="none" stroke="#DA1984" stroke-width="5" stroke-linejoin="round" stroke-miterlimit="10" cx="2561.476" cy="430.37" rx="16.442" ry="20.553"/>
	
		<ellipse fill="none" stroke="#DA1984" stroke-width="5" stroke-linejoin="round" stroke-miterlimit="10" cx="2565.462" cy="183.237" rx="16.442" ry="20.553"/>
	
		<ellipse fill="none" stroke="#DA1984" stroke-width="5" stroke-linejoin="round" stroke-miterlimit="10" cx="2704.973" cy="577.852" rx="16.442" ry="20.553"/>
	
		<ellipse fill="none" stroke="#DA1984" stroke-width="5" stroke-linejoin="round" stroke-miterlimit="10" cx="2712.945" cy="310.79" rx="16.442" ry="20.553"/>
	<path fill="none" stroke="#DA1984" stroke-width="5" stroke-linejoin="round" stroke-miterlimit="10" d="M2405.524,302.942
		c-36.373,27.902-109.937,95.166-109.937,95.166"/>
	
		<ellipse fill="none" stroke="#DA1984" stroke-width="5" stroke-linejoin="round" stroke-miterlimit="10" cx="1915.742" cy="510.09" rx="16.442" ry="20.553"/>
	<polyline fill="none" stroke="#DA1984" stroke-width="5" stroke-linejoin="round" stroke-miterlimit="10" points="
		2896.397,1215.216 2889.823,1286.989 2818.075,1316.884 2744.334,1288.982 	"/>
	
		<line fill="none" stroke="#DA1984" stroke-width="5" stroke-linejoin="round" stroke-miterlimit="10" x1="2820.366" y1="1251.215" x2="2815.885" y2="1316.055"/>
</g>
</svg>
