<?xml version="1.0" encoding="utf-8"?>
<!-- Generator: Adobe Illustrator 17.0.0, SVG Export Plug-In . SVG Version: 6.00 Build 0)  -->
<!DOCTYPE svg PUBLIC "-//W3C//DTD SVG 1.1//EN" "http://www.w3.org/Graphics/SVG/1.1/DTD/svg11.dtd">
<svg version="1.1" id="Layer_1" xmlns="http://www.w3.org/2000/svg" xmlns:xlink="http://www.w3.org/1999/xlink" x="0px" y="0px"
	 width="721.108px" height="611.808px" viewBox="39.165 0 721.108 611.808" enable-background="new 39.165 0 721.108 611.808"
	 xml:space="preserve">
<path fill="#FFFFFF" d="M205.842,136.346c0.635-2.581,1.619-5.321,2.952-8.22c1.333-2.898,3.079-5.829,5.237-8.792
	c2.158-2.961,4.75-5.861,7.776-8.696c3.025-2.834,6.527-5.48,10.505-7.935c0.635-0.381,1.608-0.793,2.92-1.238
	c1.311-0.444,2.666-0.708,4.063-0.793c1.65-1.777,3.872-2.666,6.665-2.666c3.301,0,6.083,0.836,8.347,2.507
	c2.263,1.672,4.136,3.946,5.618,6.824c0.465,0.931,0.898,1.841,1.301,2.729c0.402,0.889,0.74,1.831,1.016,2.825
	c0.275,0.995,0.497,2.063,0.667,3.206c0.168,1.143,0.254,2.434,0.254,3.872c0,3.343-0.53,6.75-1.587,10.22
	c-1.058,3.47-2.561,6.855-4.507,10.156c-1.947,3.301-4.307,6.465-7.078,9.49c-2.772,3.026-5.851,5.745-9.236,8.157
	c-2.285,1.65-4.814,2.93-7.585,3.84c-2.772,0.91-5.872,1.365-9.299,1.365c-3.259,0-6.084-0.435-8.474-1.301
	c-2.391-0.868-4.38-2.104-5.967-3.713c-1.587-1.608-2.772-3.533-3.555-5.776c-0.784-2.243-1.174-4.739-1.174-7.49
	C204.699,142.249,205.08,139.393,205.842,136.346z M216.379,137.171c-0.254,0.974-0.435,1.895-0.54,2.761
	c-0.106,0.868-0.159,1.704-0.159,2.507c0,1.396,0.18,2.698,0.54,3.904c0.359,1.206,0.941,2.244,1.746,3.11
	c0.803,0.868,1.809,1.545,3.015,2.031c1.206,0.487,2.676,0.73,4.412,0.73c3.215,0,6.21-0.814,8.982-2.444
	c2.771-1.628,5.237-3.671,7.395-6.125s3.967-5.088,5.427-7.903c1.46-2.814,2.485-5.405,3.079-7.776
	c0.381-1.481,0.708-2.877,0.984-4.189c0.275-1.311,0.413-2.517,0.413-3.618c0-1.1-0.201-2.126-0.603-3.079
	c-0.403-0.952-0.92-2.021-1.555-3.206c-0.381-0.719-0.762-1.47-1.143-2.253c-0.381-0.783-0.72-1.555-1.016-2.317
	c-0.339,0.593-0.698,1.111-1.079,1.555s-0.952,0.847-1.714,1.206c-0.762,0.36-1.799,0.688-3.11,0.984
	c-1.312,0.296-3.026,0.55-5.142,0.762c-1.396,0.466-2.815,1.185-4.253,2.158c-1.439,0.974-2.847,2.117-4.221,3.428
	c-1.375,1.312-2.688,2.729-3.936,4.253c-1.249,1.523-2.371,3.079-3.364,4.666c-0.995,1.587-1.863,3.142-2.603,4.666
	C217.193,134.505,216.674,135.901,216.379,137.171z"/>
<path fill="#FFFFFF" d="M275.476,149.422c0.338,0,0.645,0.042,0.92,0.127c0.275,0.085,0.581,0.181,0.92,0.286
	c0.338,0.106,0.719,0.201,1.143,0.286c0.422,0.085,0.973,0.127,1.65,0.127c1.989,0,4.199-0.211,6.633-0.635
	c2.433-0.422,4.729-0.973,6.887-1.65c2.158-0.676,4.009-1.449,5.554-2.317c1.544-0.867,2.422-1.767,2.634-2.698
	c0.127-0.508,0.19-0.952,0.19-1.333c0-0.719-0.349-1.406-1.047-2.063c-0.698-0.656-1.577-1.279-2.634-1.873
	c-1.058-0.592-2.201-1.143-3.428-1.65c-1.228-0.508-2.371-0.973-3.428-1.396l-2.158-0.889c-1.101-0.422-2.18-0.941-3.237-1.555
	c-1.058-0.613-2.042-1.322-2.952-2.126c-0.911-0.803-1.714-1.746-2.412-2.825c-0.698-1.079-1.217-2.317-1.555-3.713
	c-0.169-0.592-0.308-1.184-0.413-1.777c-0.106-0.592-0.159-1.227-0.159-1.904c0-1.1,0.37-2.358,1.111-3.777
	c0.74-1.417,1.735-2.825,2.983-4.221c1.248-1.396,2.666-2.729,4.253-3.999s3.247-2.327,4.983-3.174
	c1.27-0.889,2.497-1.692,3.682-2.412c1.184-0.719,2.38-1.333,3.586-1.841s2.433-0.91,3.682-1.206
	c1.248-0.295,2.571-0.444,3.967-0.444c1.27,0,2.644,0.063,4.126,0.19c1.481,0.127,2.834,0.423,4.063,0.889
	c1.227,0.466,2.253,1.153,3.079,2.063c0.825,0.911,1.238,2.126,1.238,3.65c0,0.466-0.063,1.079-0.19,1.841s-0.339,1.523-0.635,2.285
	c-0.296,0.762-0.657,1.418-1.079,1.968c-0.423,0.55-0.931,0.825-1.523,0.825c-0.974,0-1.777-0.19-2.412-0.571
	s-1.206-0.793-1.714-1.238s-1.038-0.857-1.587-1.238c-0.55-0.381-1.228-0.571-2.031-0.571c-0.974,0-2.105,0.181-3.396,0.54
	c-1.292,0.36-2.613,0.847-3.967,1.46c-1.355,0.614-2.677,1.323-3.967,2.126c-1.292,0.804-2.455,1.629-3.491,2.476
	c-1.038,0.847-1.873,1.682-2.507,2.507s-0.952,1.577-0.952,2.253c0,0.72,0.232,1.312,0.698,1.777
	c0.465,0.466,1.057,0.868,1.777,1.206c0.93,0.508,2,1.016,3.206,1.523s2.422,1.016,3.65,1.523c1.227,0.508,2.422,1.016,3.586,1.523
	c1.164,0.508,2.168,0.974,3.015,1.396c1.143,0.593,2.168,1.174,3.079,1.746c0.91,0.571,1.682,1.196,2.317,1.873
	c0.635,0.677,1.121,1.439,1.46,2.285c0.338,0.847,0.508,1.841,0.508,2.983c0,0.55-0.042,1.101-0.127,1.65
	c-0.085,0.55-0.212,1.185-0.381,1.904c-0.127,0.635-0.349,1.375-0.667,2.222c-0.317,0.847-0.657,1.682-1.016,2.507
	c-0.36,0.825-0.73,1.566-1.111,2.222c-0.381,0.657-0.698,1.09-0.952,1.301c-1.65,1.523-3.597,2.952-5.84,4.285
	c-2.244,1.333-4.581,2.498-7.014,3.491c-2.434,0.995-4.867,1.788-7.3,2.38c-2.434,0.593-4.666,0.889-6.697,0.889
	c-1.016,0-2.137-0.201-3.364-0.603c-1.228-0.402-2.359-0.93-3.396-1.587c-1.038-0.656-1.904-1.406-2.603-2.253
	c-0.698-0.846-1.047-1.692-1.047-2.539c0-0.422,0.127-0.898,0.381-1.428c0.254-0.529,0.571-1.016,0.952-1.46
	s0.793-0.825,1.238-1.143S275.095,149.422,275.476,149.422z"/>
<path fill="#FFFFFF" d="M347.077,73.631c0.211-1.692,0.549-3.258,1.016-4.697c0.465-1.438,1.089-2.634,1.873-3.586
	c0.783-0.952,1.787-1.428,3.015-1.428c0.676,0,1.428,0.127,2.253,0.381s1.608,0.603,2.349,1.047c0.74,0.444,1.365,0.984,1.873,1.619
	s0.762,1.333,0.762,2.095c0,0.339-0.063,0.73-0.19,1.174s-0.233,0.879-0.317,1.301L343.84,135.14
	c-0.635,2.539-1.165,4.962-1.587,7.268c-0.423,2.307-0.741,4.2-0.952,5.681v1.523c0,1.27-0.085,2.656-0.254,4.158
	s-0.487,2.899-0.952,4.189c-0.466,1.292-1.111,2.371-1.936,3.237s-1.895,1.301-3.206,1.301c-1.143,0-2.137-0.244-2.983-0.73
	c-0.847-0.487-1.545-1.111-2.095-1.873c-0.55-0.762-0.952-1.576-1.206-2.444c-0.254-0.867-0.381-1.682-0.381-2.444
	c0-0.676,0.063-1.513,0.19-2.507s0.286-2.031,0.476-3.11s0.391-2.158,0.603-3.237c0.211-1.079,0.422-2.021,0.635-2.825l16.377-65
	C346.696,76.89,346.865,75.324,347.077,73.631z"/>
<path fill="#FFFFFF" d="M391.32,157.928c0-1.227,0.148-2.698,0.444-4.412s0.444-3.84,0.444-6.379
	c-1.396,1.016-2.941,2.222-4.634,3.618s-3.45,2.729-5.269,3.999c-1.82,1.27-3.629,2.339-5.427,3.206
	c-1.799,0.868-3.481,1.301-5.046,1.301c-1.27,0-2.476-0.19-3.618-0.571s-2.117-0.889-2.92-1.523
	c-2.244-1.777-3.862-3.555-4.856-5.332c-0.995-1.777-1.492-3.85-1.492-6.221c0-1.057,0.095-2.158,0.286-3.301
	s0.476-2.454,0.857-3.936c1.608-6.686,4.369-12.875,8.284-18.567c3.914-5.691,8.77-10.547,14.568-14.568
	c2.243-1.565,4.485-2.571,6.729-3.015c2.242-0.444,4.465-0.667,6.665-0.667c0.974,0,2.063,0.063,3.269,0.19
	c1.207,0.127,2.295,0.254,3.27,0.381c0.973-0.211,1.767-0.359,2.381-0.444c0.612-0.084,1.258-0.127,1.936-0.127
	c1.27,0,2.326,0.169,3.174,0.508c0.846,0.339,1.523,0.793,2.031,1.365s0.878,1.228,1.111,1.968c0.231,0.741,0.349,1.514,0.349,2.317
	c0,1.101-0.169,2.148-0.508,3.142c-0.339,0.995-0.677,2-1.016,3.015l-8.379,33.452c-0.169,1.82-0.317,3.491-0.444,5.015
	s-0.381,2.942-0.762,4.253c-0.127,0.381-0.285,0.857-0.477,1.428c-0.189,0.571-0.498,1.122-0.92,1.65
	c-0.424,0.53-0.952,0.984-1.587,1.365s-1.46,0.571-2.476,0.571c-1.313,0-2.359-0.085-3.143-0.254
	c-0.783-0.169-1.387-0.413-1.809-0.73c-0.424-0.317-0.698-0.698-0.825-1.143S391.32,158.521,391.32,157.928z M370.246,138.758
	c-0.169,0.593-0.349,1.439-0.54,2.539c-0.19,1.101-0.286,2.201-0.286,3.301c0,1.143,0.168,2.169,0.508,3.079
	c0.338,0.911,1.079,1.365,2.222,1.365c1.777,0,3.438-0.391,4.983-1.174c1.544-0.783,2.993-1.724,4.348-2.825
	c1.819-1.481,3.671-3.142,5.554-4.983c1.882-1.841,3.66-3.777,5.332-5.808s3.152-4.115,4.443-6.252
	c1.291-2.136,2.232-4.263,2.825-6.379c0.339-1.227,0.624-2.644,0.856-4.253c0.232-1.608,0.35-3.047,0.35-4.316
	c0-0.549-0.127-1.089-0.381-1.619c-0.254-0.529-0.74-0.793-1.46-0.793c-2.073,0-4.157,0.403-6.253,1.206
	c-2.094,0.804-4.115,1.883-6.062,3.237c-1.947,1.355-3.799,2.952-5.554,4.792c-1.756,1.841-3.354,3.809-4.792,5.903
	c-1.439,2.095-2.677,4.253-3.713,6.475C371.589,134.473,370.795,136.642,370.246,138.758z M420.266,75.218
	c-0.467,1.863-1.26,3.364-2.381,4.507s-2.507,2.137-4.157,2.983l-19.932,9.902c-0.762,0.423-1.777,0.635-3.047,0.635
	c-0.974,0-1.673-0.222-2.095-0.667c-0.424-0.444-0.635-1.025-0.635-1.746c0-0.889,0.18-1.692,0.539-2.412
	c0.359-0.719,0.814-1.375,1.365-1.968c0.549-0.592,1.143-1.111,1.777-1.555s1.206-0.835,1.714-1.174l4.824-2.856
	c2.031-1.184,4.021-2.38,5.967-3.586s3.767-2.285,5.459-3.237s3.216-1.735,4.57-2.349c1.354-0.613,2.412-0.92,3.174-0.92
	c0.847,0,1.556,0.296,2.126,0.889c0.572,0.593,0.857,1.375,0.857,2.349c0,0.212,0,0.413,0,0.603S420.35,75.006,420.266,75.218z"/>
<path fill="#FFFFFF" d="M443.879,163.196c-0.213,0.042-0.392,0.073-0.539,0.095c-0.149,0.021-0.309,0.032-0.477,0.032
	c-0.889,0-1.672-0.19-2.349-0.571s-1.26-0.857-1.745-1.428c-0.487-0.571-0.857-1.184-1.111-1.841
	c-0.254-0.656-0.381-1.279-0.381-1.873c-0.213-0.889-0.508-2.158-0.889-3.809s-0.815-3.512-1.301-5.586
	c-0.487-2.073-0.995-4.306-1.523-6.697c-0.53-2.39-1.048-4.792-1.556-7.205s-0.974-4.761-1.396-7.046
	c-0.423-2.285-0.784-4.38-1.079-6.284c-0.213-1.354-0.444-2.624-0.698-3.809c-0.254-1.184-0.487-2.317-0.698-3.396
	c-0.213-1.079-0.392-2.136-0.539-3.174c-0.149-1.037-0.223-2.084-0.223-3.142c0-1.184,0.127-2.317,0.381-3.396
	s0.624-2.031,1.111-2.856c0.485-0.825,1.078-1.492,1.777-2c0.697-0.508,1.469-0.762,2.316-0.762c1.691,0,3.036,0.413,4.031,1.238
	c0.993,0.825,1.766,1.926,2.316,3.301c0.549,1.375,0.941,2.974,1.174,4.792c0.232,1.82,0.413,3.704,0.54,5.649
	c0.169,2.455,0.444,5.11,0.825,7.966s0.803,5.713,1.27,8.569c0.465,2.856,0.941,5.608,1.428,8.252
	c0.486,2.645,0.921,4.983,1.302,7.014c1.27-1.311,3.491-4.231,6.665-8.76c1.564-2.2,3.016-4.231,4.348-6.094
	c1.334-1.862,2.592-3.65,3.777-5.364c1.184-1.714,2.307-3.417,3.364-5.11c1.058-1.692,2.084-3.449,3.079-5.269
	c0.993-1.819,1.967-3.755,2.92-5.808c0.951-2.052,1.914-4.326,2.888-6.824c0.296-0.508,0.655-1.047,1.079-1.619
	c0.422-0.571,0.92-1.079,1.492-1.523c0.57-0.444,1.227-0.814,1.967-1.111c0.74-0.295,1.576-0.444,2.508-0.444
	c1.945,0,3.27,0.487,3.967,1.46c0.699,0.974,1.048,2.201,1.048,3.682c0,1.99-0.349,3.926-1.048,5.808
	c-0.697,1.883-1.809,3.904-3.332,6.062l-29.771,42.021c-0.593,1.27-1.206,2.328-1.841,3.174c-0.635,0.847-1.26,1.523-1.873,2.031
	s-1.195,0.889-1.745,1.143S444.301,163.111,443.879,163.196z"/>
<path fill="#FFFFFF" d="M496.184,140.916c0-3.555,0.402-7.246,1.206-11.077c0.804-3.83,1.65-7.5,2.539-11.013
	c-1.101-0.042-2.222-0.211-3.364-0.508c-1.143-0.295-2.18-0.698-3.11-1.206s-1.692-1.132-2.285-1.873
	c-0.593-0.74-0.889-1.597-0.889-2.571c0-0.381,0.085-0.867,0.254-1.46c0.169-0.592,0.413-1.174,0.729-1.746
	c0.318-0.571,0.73-1.057,1.238-1.46c0.508-0.402,1.079-0.603,1.714-0.603h8.506c0.804,0,1.354-0.349,1.65-1.047
	s0.528-1.386,0.698-2.063c0.549-2.454,1.068-4.58,1.555-6.379c0.486-1.798,0.898-3.322,1.238-4.57
	c0.338-1.248,0.604-2.263,0.793-3.047c0.191-0.783,0.286-1.406,0.286-1.873c0-0.549-0.022-1.079-0.063-1.587
	c-0.043-0.508-0.063-1.206-0.063-2.095v-0.635c0-0.338,0.032-0.783,0.095-1.333c0.064-0.549,0.264-1.333,0.604-2.349
	c0.254-0.803,0.719-1.565,1.396-2.285c0.676-0.719,1.672-1.079,2.983-1.079c1.143,0,2.116,0.233,2.92,0.698
	c0.804,0.466,1.46,1.079,1.968,1.841s0.889,1.629,1.143,2.603s0.381,1.947,0.381,2.92c0,1.058-0.105,2.01-0.317,2.856l-4.634,17.773
	c2.285-0.381,4.316-0.74,6.094-1.079c1.777-0.338,3.555-0.676,5.332-1.016c1.945-0.381,3.628-0.74,5.047-1.079
	c1.417-0.338,2.634-0.624,3.649-0.857c1.016-0.232,1.872-0.422,2.571-0.571c0.697-0.148,1.279-0.222,1.745-0.222
	c0.677,0,1.364,0.054,2.063,0.159c0.697,0.106,1.311,0.286,1.84,0.54s0.963,0.614,1.302,1.079c0.339,0.466,0.508,1.079,0.508,1.841
	c0,1.016-0.201,1.915-0.603,2.698c-0.403,0.784-0.921,1.46-1.556,2.031s-1.354,1.038-2.158,1.396
	c-0.804,0.36-1.608,0.625-2.412,0.793c-0.677,0.127-1.556,0.317-2.634,0.571c-1.08,0.254-2.265,0.53-3.555,0.825
	c-1.292,0.296-2.635,0.614-4.031,0.952c-1.396,0.339-2.752,0.677-4.063,1.016c-1.947,0.508-3.608,0.931-4.982,1.27
	c-1.376,0.339-2.551,0.593-3.523,0.762c-0.975,0.169-1.768,0.296-2.381,0.381s-1.11,0.127-1.491,0.127
	c-0.804,2.412-1.503,4.783-2.095,7.109c-0.594,2.328-1.09,4.497-1.492,6.506c-0.402,2.01-0.697,3.809-0.889,5.396
	c-0.189,1.587-0.285,2.825-0.285,3.713c0,1.143,0.105,2.232,0.317,3.269c0.212,1.038,0.571,1.936,1.079,2.698
	s1.195,1.365,2.063,1.809s1.957,0.667,3.27,0.667c2.242,0,4.443-0.613,6.602-1.841c2.158-1.227,4.221-2.782,6.189-4.666
	c1.967-1.882,3.829-3.945,5.586-6.189c1.755-2.243,3.373-4.38,4.855-6.411c0.508-0.762,1.164-1.143,1.968-1.143
	c0.254,0,0.561,0.042,0.921,0.127c0.358,0.085,0.707,0.233,1.047,0.444c0.338,0.212,0.624,0.487,0.857,0.825
	c0.231,0.339,0.349,0.741,0.349,1.206c0,0.339-0.022,0.593-0.063,0.762c-0.678,2.625-1.725,5.259-3.143,7.903
	c-1.418,2.645-2.867,5.3-4.348,7.966c-0.508,0.931-1.174,1.841-2,2.729c-0.824,0.889-1.725,1.746-2.697,2.571
	c-0.975,0.825-1.99,1.609-3.047,2.349c-1.059,0.741-2.053,1.407-2.983,2c-1.608,1.016-3.364,1.714-5.269,2.095
	s-3.745,0.571-5.522,0.571c-2.751,0-5.195-0.497-7.331-1.492c-2.138-0.994-3.936-2.349-5.396-4.063
	c-1.459-1.714-2.57-3.713-3.332-5.999S496.184,143.541,496.184,140.916z"/>
<path fill="#FFFFFF" d="M554.836,136.155c0-1.819,0.486-3.364,1.46-4.634s2.263-2.116,3.872-2.539
	c0.465-0.93,1.184-2.19,2.158-3.777c0.973-1.587,2.18-3.311,3.618-5.173s3.079-3.734,4.919-5.618
	c1.842-1.882,3.873-3.596,6.094-5.142c2.223-1.544,4.612-2.803,7.174-3.777c2.56-0.973,5.277-1.46,8.156-1.46
	c2.453,0,4.592,0.296,6.411,0.889c1.819,0.593,3.321,1.418,4.507,2.476c1.184,1.058,2.072,2.317,2.666,3.777
	c0.592,1.46,0.889,3.037,0.889,4.729c0,1.439-0.19,2.815-0.571,4.126c-0.593,2.371-1.692,4.443-3.301,6.221
	c-1.608,1.777-3.502,3.333-5.681,4.666c-2.181,1.333-4.55,2.444-7.109,3.333c-2.562,0.889-5.121,1.629-7.682,2.222
	c-2.561,0.593-5.025,1.047-7.395,1.365c-2.371,0.317-4.422,0.562-6.157,0.73c-0.381,0.762-0.709,1.725-0.983,2.888
	c-0.276,1.165-0.413,2.296-0.413,3.396c0,2.455,0.974,4.359,2.92,5.713c1.946,1.355,4.634,2.031,8.062,2.031
	c1.988,0,3.893-0.222,5.713-0.667c1.818-0.444,3.544-1.016,5.174-1.714c1.628-0.698,3.162-1.46,4.602-2.285
	c1.438-0.825,2.75-1.64,3.936-2.444c1.523-1.016,2.973-1.873,4.348-2.571s2.592-1.047,3.65-1.047c1.058,0,1.734,0.265,2.031,0.793
	c0.296,0.53,0.444,1.09,0.444,1.682c0,0.339-0.011,0.667-0.032,0.984s-0.053,0.582-0.095,0.793c-0.212,1.101-0.635,2.201-1.27,3.301
	c-0.635,1.101-1.439,2.053-2.412,2.856c-4.401,3.47-8.919,5.946-13.552,7.427c-4.635,1.481-9.576,2.222-14.822,2.222
	c-1.016,0-2.212-0.063-3.586-0.19c-1.376-0.127-2.805-0.381-4.285-0.762c-1.482-0.381-2.941-0.93-4.38-1.65
	c-1.438-0.719-2.72-1.671-3.841-2.856c-1.121-1.184-2.031-2.644-2.729-4.38c-0.699-1.735-1.048-3.83-1.048-6.284
	c0-1.989,0.274-4.21,0.825-6.665c-0.551-0.084-1.069-0.37-1.555-0.857C555.079,137.796,554.836,137.087,554.836,136.155z
	 M594.572,118.572c0.084-0.211,0.127-0.402,0.127-0.571c0-0.168,0-0.359,0-0.571c0-1.143-0.424-2-1.27-2.571
	c-0.848-0.571-1.863-0.857-3.047-0.857c-1.863,0-3.692,0.487-5.49,1.46c-1.8,0.974-3.492,2.19-5.078,3.65
	c-1.588,1.46-2.994,3.026-4.222,4.697c-1.228,1.672-2.181,3.185-2.856,4.539c3.047-0.254,5.84-0.667,8.379-1.238
	s4.75-1.291,6.633-2.158s3.406-1.841,4.57-2.92S594.232,119.8,594.572,118.572z"/>
<path fill="#FFFFFF" d="M285.385,377.088c0-1.604,0.193-3.528,0.581-5.769c0.387-2.241,0.581-5.022,0.581-8.342
	c-1.826,1.328-3.847,2.905-6.06,4.731c-2.214,1.826-4.511,3.569-6.89,5.229c-2.38,1.66-4.746,3.058-7.097,4.192
	c-2.353,1.135-4.552,1.702-6.599,1.702c-1.66,0-3.237-0.249-4.731-0.747c-1.494-0.498-2.768-1.162-3.818-1.992
	c-2.934-2.324-5.05-4.648-6.35-6.973c-1.301-2.324-1.951-5.035-1.951-8.135c0-1.383,0.125-2.822,0.374-4.316
	s0.623-3.209,1.121-5.146c2.103-8.743,5.713-16.836,10.833-24.28c5.118-7.442,11.468-13.792,19.05-19.05
	c2.933-2.047,5.865-3.362,8.799-3.943c2.933-0.581,5.838-0.872,8.716-0.872c1.272,0,2.698,0.083,4.275,0.249
	s3.001,0.332,4.275,0.498c1.272-0.276,2.31-0.47,3.113-0.581c0.802-0.11,1.646-0.166,2.532-0.166c1.66,0,3.043,0.222,4.15,0.664
	c1.106,0.443,1.992,1.038,2.656,1.785s1.148,1.605,1.453,2.573c0.304,0.969,0.457,1.979,0.457,3.03c0,1.439-0.222,2.809-0.664,4.109
	c-0.443,1.301-0.886,2.615-1.328,3.943l-10.957,43.745c-0.222,2.38-0.415,4.565-0.581,6.558s-0.498,3.847-0.996,5.562
	c-0.166,0.498-0.374,1.121-0.623,1.868s-0.651,1.467-1.204,2.158c-0.554,0.692-1.245,1.287-2.075,1.785s-1.909,0.747-3.237,0.747
	c-1.716,0-3.085-0.111-4.109-0.332c-1.024-0.222-1.813-0.54-2.366-0.955c-0.554-0.415-0.913-0.913-1.079-1.494
	S285.385,377.863,285.385,377.088z M257.826,352.02c-0.222,0.775-0.457,1.882-0.706,3.32c-0.249,1.439-0.374,2.878-0.374,4.316
	c0,1.494,0.221,2.836,0.664,4.026c0.442,1.19,1.411,1.785,2.905,1.785c2.324,0,4.496-0.511,6.516-1.536
	c2.02-1.023,3.915-2.254,5.686-3.694c2.379-1.937,4.8-4.109,7.263-6.516c2.462-2.407,4.786-4.939,6.973-7.595
	c2.186-2.656,4.122-5.381,5.811-8.176c1.688-2.794,2.918-5.575,3.694-8.342c0.442-1.604,0.816-3.458,1.121-5.562
	c0.304-2.103,0.457-3.984,0.457-5.645c0-0.719-0.166-1.424-0.498-2.117c-0.332-0.691-0.969-1.038-1.909-1.038
	c-2.712,0-5.437,0.526-8.176,1.577c-2.739,1.052-5.382,2.463-7.927,4.233c-2.546,1.771-4.967,3.86-7.263,6.267
	c-2.297,2.407-4.386,4.98-6.267,7.72c-1.882,2.739-3.5,5.562-4.856,8.467C259.583,346.417,258.545,349.253,257.826,352.02z"/>
<path fill="#FFFFFF" d="M352.787,266.854c0.276-2.213,0.719-4.261,1.328-6.143c0.608-1.881,1.424-3.445,2.449-4.69
	c1.023-1.245,2.337-1.868,3.942-1.868c0.885,0,1.868,0.166,2.946,0.498c1.08,0.332,2.104,0.789,3.072,1.37
	c0.967,0.581,1.784,1.287,2.448,2.117s0.996,1.743,0.996,2.739c0,0.443-0.083,0.955-0.249,1.536s-0.305,1.149-0.415,1.702
	l-20.752,83.174c-0.83,3.32-1.522,6.489-2.075,9.504c-0.554,3.017-0.969,5.493-1.245,7.429v1.992c0,1.66-0.111,3.473-0.332,5.437
	c-0.222,1.965-0.637,3.791-1.245,5.479c-0.609,1.688-1.453,3.1-2.531,4.233c-1.08,1.134-2.478,1.702-4.192,1.702
	c-1.494,0-2.795-0.319-3.901-0.955c-1.107-0.637-2.021-1.453-2.739-2.449c-0.72-0.996-1.245-2.061-1.577-3.196
	c-0.332-1.134-0.498-2.2-0.498-3.196c0-0.885,0.083-1.978,0.249-3.279c0.166-1.3,0.374-2.656,0.623-4.067s0.511-2.822,0.789-4.233
	c0.276-1.411,0.553-2.642,0.83-3.694l21.416-85C352.289,271.115,352.51,269.068,352.787,266.854z"/>
<path fill="#FFFFFF" d="M369.14,348.616c0-2.379,0.636-4.399,1.909-6.06c1.272-1.66,2.96-2.767,5.063-3.32
	c0.608-1.217,1.549-2.864,2.822-4.939c1.272-2.075,2.85-4.33,4.731-6.765c1.881-2.435,4.025-4.883,6.434-7.346
	c2.406-2.462,5.063-4.703,7.969-6.724c2.904-2.02,6.031-3.666,9.379-4.939c3.348-1.272,6.903-1.909,10.667-1.909
	c3.209,0,6.004,0.388,8.384,1.162c2.379,0.775,4.344,1.854,5.894,3.237c1.549,1.384,2.711,3.03,3.486,4.939
	c0.774,1.909,1.162,3.971,1.162,6.184c0,1.882-0.249,3.681-0.747,5.396c-0.775,3.1-2.214,5.811-4.316,8.135
	c-2.104,2.324-4.58,4.358-7.43,6.101s-5.949,3.196-9.297,4.358s-6.695,2.131-10.043,2.905c-3.35,0.775-6.572,1.37-9.671,1.785
	c-3.1,0.415-5.783,0.734-8.052,0.955c-0.498,0.996-0.928,2.255-1.287,3.777c-0.359,1.522-0.539,3.002-0.539,4.441
	c0,3.21,1.272,5.7,3.818,7.471c2.545,1.771,6.06,2.656,10.542,2.656c2.601,0,5.091-0.291,7.471-0.872
	c2.379-0.581,4.634-1.328,6.765-2.241s4.137-1.909,6.019-2.988c1.881-1.079,3.597-2.144,5.146-3.196
	c1.992-1.328,3.888-2.449,5.687-3.362c1.797-0.913,3.389-1.37,4.772-1.37s2.269,0.346,2.656,1.038s0.581,1.425,0.581,2.2
	c0,0.443-0.014,0.872-0.041,1.287c-0.029,0.415-0.07,0.761-0.125,1.038c-0.277,1.439-0.83,2.878-1.66,4.316
	c-0.83,1.439-1.882,2.685-3.154,3.735c-5.756,4.538-11.662,7.775-17.723,9.712c-6.059,1.937-12.521,2.905-19.382,2.905
	c-1.328,0-2.892-0.083-4.69-0.249s-3.666-0.498-5.603-0.996c-1.938-0.498-3.847-1.217-5.728-2.158
	c-1.882-0.94-3.557-2.186-5.021-3.735c-1.467-1.549-2.656-3.458-3.57-5.728c-0.912-2.269-1.369-5.008-1.369-8.218
	c0-2.601,0.359-5.506,1.079-8.716c-0.72-0.11-1.397-0.484-2.034-1.121C369.457,350.761,369.14,349.834,369.14,348.616z
	 M421.103,325.623c0.11-0.276,0.166-0.525,0.166-0.747c0-0.221,0-0.47,0-0.747c0-1.494-0.554-2.615-1.66-3.362
	c-1.107-0.747-2.436-1.121-3.984-1.121c-2.436,0-4.829,0.637-7.181,1.909c-2.352,1.273-4.564,2.864-6.641,4.773
	c-2.074,1.909-3.915,3.957-5.52,6.143c-1.605,2.187-2.851,4.165-3.735,5.935c3.984-0.332,7.637-0.872,10.957-1.619
	s6.212-1.688,8.675-2.822c2.461-1.134,4.453-2.407,5.977-3.818C419.678,328.736,420.659,327.229,421.103,325.623z"/>
<path fill="#FFFFFF" d="M513.241,312.508c-1.938,0-4.013,0.457-6.226,1.37c-2.214,0.913-4.511,2.145-6.89,3.694
	c-2.38,1.55-4.802,3.307-7.263,5.271c-2.463,1.965-4.885,3.999-7.264,6.101c-1.218,1.052-2.38,2.006-3.486,2.864
	c-1.107,0.858-2.214,1.508-3.32,1.951c-0.775,1.273-1.592,2.947-2.449,5.022s-1.701,4.345-2.531,6.807
	c-0.83,2.463-1.619,4.98-2.365,7.554c-0.748,2.573-1.37,4.967-1.868,7.18c-0.277,1.162-0.498,2.297-0.664,3.403
	c-0.166,1.107-0.36,2.283-0.581,3.528c-0.222,1.245-0.484,2.587-0.789,4.026s-0.678,3.044-1.12,4.814
	c-0.277,1.052-0.72,1.896-1.328,2.532c-0.609,0.637-1.245,1.121-1.909,1.453s-1.301,0.54-1.909,0.623
	c-0.609,0.083-1.079,0.125-1.411,0.125c-2.104,0-3.818-0.498-5.146-1.494s-1.992-2.933-1.992-5.811c0-0.774,0.027-1.59,0.083-2.449
	c0.055-0.857,0.221-1.812,0.498-2.864c1.217-5.257,2.394-9.988,3.528-14.194c1.133-4.205,2.282-8.106,3.444-11.704
	c1.162-3.597,2.337-6.986,3.528-10.168c1.189-3.182,2.406-6.392,3.652-9.629c1.244-3.237,2.545-6.585,3.9-10.044
	c1.355-3.458,2.809-7.291,4.358-11.497c0.332-0.94,1.204-1.729,2.614-2.366c1.412-0.636,2.919-0.955,4.524-0.955
	c2.103,0,3.831,0.471,5.188,1.411c1.355,0.941,2.033,2.297,2.033,4.067c0,0.166-0.056,0.471-0.166,0.913
	c-0.111,0.443-0.277,0.913-0.498,1.411l-3.652,8.633c2.324-1.826,4.744-3.652,7.264-5.479c2.518-1.826,5.104-3.472,7.761-4.939
	c2.656-1.466,5.325-2.656,8.011-3.569c2.684-0.913,5.325-1.37,7.927-1.37c5.313,0,9.463,1.425,12.451,4.275
	c2.988,2.851,4.482,7.263,4.482,13.24c0,3.432-0.595,7.333-1.784,11.704c-1.191,4.372-2.686,9.062-4.482,14.07
	c-1.799,5.009-3.736,10.266-5.811,15.771c-2.076,5.507-3.999,11.11-5.77,16.809c-0.498,1.55-1.01,2.851-1.535,3.901
	c-0.527,1.052-1.149,1.896-1.868,2.532c-0.72,0.636-1.563,1.092-2.532,1.37c-0.969,0.276-2.145,0.415-3.527,0.415
	c-2.158,0-3.652-0.402-4.482-1.204c-0.83-0.803-1.245-2.088-1.245-3.86c0-1.549,0.235-3.445,0.706-5.686
	c0.469-2.241,1.133-4.703,1.992-7.388c0.857-2.684,1.854-5.547,2.988-8.591c1.133-3.043,2.365-6.143,3.693-9.297
	c1.051-2.545,2.088-5.091,3.113-7.637c1.023-2.545,1.936-5.008,2.738-7.388c0.803-2.379,1.453-4.648,1.951-6.807
	s0.747-4.15,0.747-5.977c0-1.715-0.374-3.223-1.12-4.524C516.686,313.159,515.288,312.508,513.241,312.508z"/>
<path fill="#FFFFFF" d="M560.058,354.842c0-4.648,0.525-9.476,1.577-14.485c1.051-5.008,2.158-9.808,3.32-14.402
	c-1.439-0.055-2.905-0.276-4.399-0.664c-1.494-0.387-2.851-0.913-4.067-1.577c-1.218-0.664-2.214-1.48-2.988-2.449
	c-0.775-0.968-1.162-2.088-1.162-3.362c0-0.498,0.11-1.134,0.332-1.909c0.221-0.774,0.539-1.536,0.955-2.283
	c0.414-0.747,0.954-1.383,1.618-1.909c0.664-0.525,1.411-0.789,2.241-0.789h11.123c1.051,0,1.771-0.457,2.158-1.37
	s0.691-1.812,0.913-2.698c0.719-3.209,1.396-5.99,2.034-8.342c0.635-2.352,1.175-4.344,1.618-5.977
	c0.442-1.632,0.788-2.96,1.038-3.984c0.248-1.023,0.373-1.839,0.373-2.449c0-0.719-0.028-1.411-0.083-2.075
	c-0.056-0.664-0.083-1.577-0.083-2.739v-0.83c0-0.442,0.041-1.023,0.125-1.743c0.082-0.719,0.345-1.743,0.788-3.071
	c0.332-1.051,0.94-2.047,1.826-2.988c0.885-0.94,2.186-1.411,3.901-1.411c1.494,0,2.767,0.305,3.818,0.913
	c1.051,0.609,1.909,1.411,2.573,2.407s1.162,2.131,1.494,3.403c0.332,1.273,0.498,2.546,0.498,3.818
	c0,1.384-0.139,2.629-0.415,3.735l-6.06,23.242c2.988-0.498,5.645-0.968,7.969-1.411c2.324-0.442,4.648-0.885,6.973-1.328
	c2.545-0.498,4.744-0.968,6.599-1.411c1.854-0.442,3.445-0.816,4.773-1.121c1.328-0.304,2.449-0.553,3.361-0.747
	c0.914-0.193,1.674-0.291,2.283-0.291c0.885,0,1.785,0.07,2.697,0.208c0.914,0.139,1.715,0.374,2.408,0.706
	c0.69,0.332,1.258,0.803,1.701,1.411c0.442,0.609,0.664,1.411,0.664,2.407c0,1.328-0.264,2.504-0.789,3.528
	c-0.526,1.024-1.203,1.909-2.033,2.656s-1.771,1.356-2.822,1.826c-1.052,0.471-2.104,0.817-3.154,1.038
	c-0.886,0.166-2.033,0.415-3.445,0.747c-1.41,0.332-2.961,0.692-4.648,1.079c-1.688,0.388-3.444,0.803-5.271,1.245
	c-1.826,0.443-3.598,0.886-5.313,1.328c-2.546,0.664-4.719,1.218-6.517,1.66c-1.799,0.443-3.334,0.775-4.606,0.996
	c-1.273,0.222-2.312,0.388-3.112,0.498c-0.804,0.111-1.453,0.166-1.951,0.166c-1.052,3.154-1.965,6.254-2.739,9.297
	c-0.775,3.044-1.426,5.88-1.95,8.508c-0.527,2.629-0.914,4.98-1.162,7.056c-0.25,2.075-0.374,3.694-0.374,4.856
	c0,1.494,0.138,2.919,0.415,4.275c0.276,1.356,0.747,2.532,1.411,3.528s1.563,1.785,2.698,2.366
	c1.133,0.581,2.559,0.872,4.274,0.872c2.933,0,5.811-0.802,8.633-2.407c2.822-1.604,5.521-3.638,8.093-6.101
	c2.574-2.462,5.008-5.16,7.305-8.093c2.296-2.933,4.413-5.728,6.351-8.384c0.664-0.996,1.521-1.494,2.573-1.494
	c0.332,0,0.732,0.056,1.203,0.166c0.47,0.111,0.927,0.305,1.37,0.581c0.442,0.277,0.815,0.637,1.12,1.079
	c0.304,0.443,0.457,0.969,0.457,1.577c0,0.443-0.028,0.775-0.083,0.996c-0.886,3.432-2.256,6.876-4.108,10.334
	c-1.855,3.459-3.75,6.931-5.687,10.417c-0.664,1.218-1.536,2.407-2.614,3.569c-1.08,1.162-2.256,2.283-3.528,3.362
	c-1.273,1.079-2.602,2.104-3.984,3.071c-1.384,0.969-2.685,1.84-3.901,2.615c-2.104,1.328-4.399,2.241-6.89,2.739
	s-4.897,0.747-7.222,0.747c-3.598,0-6.794-0.65-9.588-1.951c-2.795-1.3-5.146-3.071-7.055-5.313
	c-1.91-2.241-3.362-4.856-4.358-7.844S560.058,358.274,560.058,354.842z"/>
<path fill="#FFFFFF" d="M637.753,365.467c0.83-3.209,1.826-6.944,2.988-11.206c1.162-4.261,2.393-8.771,3.693-13.53
	s2.615-9.629,3.943-14.609s2.573-9.822,3.735-14.526c0.055-0.221,0.249-0.594,0.581-1.121c0.332-0.525,0.802-1.051,1.411-1.577
	c0.608-0.525,1.383-0.982,2.324-1.37c0.94-0.387,2.047-0.581,3.32-0.581c0.94,0,1.854,0.097,2.739,0.291s1.673,0.485,2.365,0.872
	c0.691,0.388,1.246,0.9,1.66,1.536c0.416,0.637,0.623,1.37,0.623,2.2c0,0.166,0,0.346,0,0.54s-0.028,0.374-0.083,0.54l-2.324,8.799
	c-2.602,9.851-5.244,19.729-7.927,29.634c-2.686,9.906-5.3,19.839-7.845,29.8c-0.111,0.332-0.277,0.747-0.498,1.245
	c-0.222,0.498-0.526,0.996-0.913,1.494c-0.388,0.498-0.858,0.913-1.411,1.245c-0.554,0.332-1.218,0.498-1.992,0.498
	c-1.439,0-2.712-0.291-3.818-0.872c-1.107-0.581-2.048-1.315-2.822-2.2c-0.775-0.886-1.356-1.854-1.743-2.905
	c-0.388-1.051-0.581-2.047-0.581-2.988c0-0.276,0-0.525,0-0.747c0-0.221,0.055-0.47,0.166-0.747L637.753,365.467z M697.519,268.929
	c-0.609,2.436-1.647,4.399-3.113,5.894c-1.467,1.494-3.278,2.795-5.437,3.901l-26.064,12.949c-0.996,0.554-2.324,0.83-3.984,0.83
	c-1.273,0-2.187-0.291-2.739-0.872c-0.554-0.581-0.83-1.341-0.83-2.283c0-1.162,0.234-2.213,0.705-3.154
	c0.47-0.94,1.065-1.798,1.785-2.573c0.719-0.774,1.494-1.453,2.324-2.034s1.577-1.092,2.241-1.536l6.309-3.735
	c2.656-1.549,5.257-3.113,7.803-4.69c2.545-1.577,4.925-2.988,7.139-4.233c2.213-1.245,4.205-2.269,5.977-3.071
	c1.771-0.802,3.154-1.204,4.15-1.204c1.106,0,2.034,0.388,2.78,1.162c0.748,0.775,1.121,1.799,1.121,3.071c0,0.277,0,0.54,0,0.789
	S697.629,268.652,697.519,268.929z"/>
<path fill="#FFFFFF" d="M739.853,312.508c-1.938,0-4.013,0.457-6.226,1.37c-2.214,0.913-4.511,2.145-6.89,3.694
	c-2.38,1.55-4.802,3.307-7.264,5.271c-2.463,1.965-4.884,3.999-7.263,6.101c-1.218,1.052-2.38,2.006-3.486,2.864
	c-1.107,0.858-2.214,1.508-3.32,1.951c-0.775,1.273-1.592,2.947-2.448,5.022c-0.859,2.075-1.702,4.345-2.532,6.807
	c-0.83,2.463-1.618,4.98-2.366,7.554c-0.746,2.573-1.369,4.967-1.867,7.18c-0.277,1.162-0.498,2.297-0.664,3.403
	c-0.166,1.107-0.36,2.283-0.581,3.528c-0.222,1.245-0.485,2.587-0.788,4.026c-0.306,1.439-0.679,3.044-1.121,4.814
	c-0.277,1.052-0.72,1.896-1.328,2.532c-0.609,0.637-1.245,1.121-1.909,1.453s-1.301,0.54-1.909,0.623
	c-0.609,0.083-1.079,0.125-1.411,0.125c-2.104,0-3.818-0.498-5.146-1.494s-1.992-2.933-1.992-5.811c0-0.774,0.027-1.59,0.083-2.449
	c0.055-0.857,0.221-1.812,0.498-2.864c1.217-5.257,2.393-9.988,3.527-14.194c1.134-4.205,2.283-8.106,3.445-11.704
	c1.162-3.597,2.337-6.986,3.527-10.168c1.189-3.182,2.408-6.392,3.652-9.629c1.246-3.237,2.545-6.585,3.902-10.044
	c1.354-3.458,2.808-7.291,4.357-11.497c0.332-0.94,1.203-1.729,2.615-2.366c1.41-0.636,2.918-0.955,4.523-0.955
	c2.103,0,3.831,0.471,5.188,1.411c1.355,0.941,2.034,2.297,2.034,4.067c0,0.166-0.056,0.471-0.166,0.913
	c-0.111,0.443-0.277,0.913-0.498,1.411l-3.652,8.633c2.324-1.826,4.744-3.652,7.263-5.479c2.518-1.826,5.105-3.472,7.762-4.939
	c2.656-1.466,5.325-2.656,8.01-3.569c2.684-0.913,5.326-1.37,7.928-1.37c5.313,0,9.463,1.425,12.451,4.275
	c2.988,2.851,4.482,7.263,4.482,13.24c0,3.432-0.596,7.333-1.785,11.704c-1.19,4.372-2.685,9.062-4.482,14.07
	c-1.799,5.009-3.734,10.266-5.811,15.771c-2.074,5.507-3.998,11.11-5.769,16.809c-0.498,1.55-1.011,2.851-1.536,3.901
	c-0.526,1.052-1.148,1.896-1.867,2.532c-0.72,0.636-1.564,1.092-2.531,1.37c-0.97,0.276-2.146,0.415-3.528,0.415
	c-2.158,0-3.652-0.402-4.482-1.204c-0.83-0.803-1.245-2.088-1.245-3.86c0-1.549,0.234-3.445,0.705-5.686
	c0.47-2.241,1.134-4.703,1.992-7.388c0.857-2.684,1.854-5.547,2.988-8.591c1.134-3.043,2.366-6.143,3.694-9.297
	c1.051-2.545,2.088-5.091,3.112-7.637c1.023-2.545,1.937-5.008,2.74-7.388c0.801-2.379,1.452-4.648,1.95-6.807
	s0.747-4.15,0.747-5.977c0-1.715-0.373-3.223-1.121-4.524C743.298,313.159,741.899,312.508,739.853,312.508z"/>
<path fill="#FFFFFF" d="M206.731,537.422c0.338,0,0.645,0.042,0.92,0.127s0.581,0.181,0.92,0.286
	c0.338,0.106,0.719,0.201,1.143,0.286c0.422,0.085,0.973,0.127,1.65,0.127c1.989,0,4.199-0.211,6.633-0.635
	c2.433-0.422,4.729-0.973,6.887-1.65c2.158-0.676,4.009-1.449,5.554-2.317c1.544-0.867,2.422-1.767,2.634-2.698
	c0.127-0.508,0.19-0.952,0.19-1.333c0-0.719-0.349-1.406-1.047-2.063c-0.698-0.656-1.577-1.279-2.634-1.873
	c-1.058-0.592-2.201-1.143-3.428-1.65c-1.228-0.508-2.371-0.973-3.428-1.396l-2.158-0.889c-1.101-0.422-2.18-0.941-3.237-1.555
	c-1.058-0.613-2.042-1.322-2.952-2.126c-0.911-0.803-1.714-1.746-2.412-2.825s-1.217-2.317-1.555-3.713
	c-0.169-0.592-0.308-1.184-0.413-1.777c-0.106-0.592-0.159-1.227-0.159-1.904c0-1.1,0.37-2.358,1.111-3.777
	c0.74-1.417,1.735-2.825,2.983-4.221s2.666-2.729,4.253-3.999s3.247-2.327,4.983-3.174c1.27-0.889,2.497-1.692,3.682-2.412
	c1.184-0.719,2.38-1.333,3.586-1.841s2.433-0.91,3.682-1.206c1.248-0.295,2.571-0.444,3.967-0.444c1.27,0,2.644,0.063,4.126,0.19
	c1.481,0.127,2.834,0.423,4.063,0.889c1.227,0.466,2.253,1.153,3.079,2.063c0.825,0.911,1.238,2.126,1.238,3.65
	c0,0.466-0.063,1.079-0.19,1.841s-0.339,1.523-0.635,2.285c-0.296,0.762-0.657,1.418-1.079,1.968
	c-0.423,0.55-0.931,0.825-1.523,0.825c-0.974,0-1.777-0.19-2.412-0.571s-1.206-0.793-1.714-1.238s-1.038-0.857-1.587-1.238
	c-0.55-0.381-1.228-0.571-2.031-0.571c-0.974,0-2.105,0.181-3.396,0.54c-1.292,0.36-2.613,0.847-3.967,1.46
	c-1.355,0.614-2.677,1.323-3.967,2.126c-1.292,0.804-2.455,1.629-3.491,2.476c-1.038,0.847-1.873,1.682-2.507,2.507
	s-0.952,1.577-0.952,2.253c0,0.72,0.232,1.312,0.698,1.777c0.465,0.466,1.057,0.868,1.777,1.206c0.93,0.508,2,1.016,3.206,1.523
	s2.422,1.016,3.65,1.523c1.227,0.508,2.422,1.016,3.586,1.523c1.164,0.508,2.168,0.974,3.015,1.396
	c1.143,0.593,2.168,1.174,3.079,1.746c0.91,0.571,1.682,1.196,2.317,1.873s1.121,1.439,1.46,2.285
	c0.338,0.847,0.508,1.841,0.508,2.983c0,0.55-0.042,1.101-0.127,1.65c-0.085,0.55-0.212,1.185-0.381,1.904
	c-0.127,0.635-0.349,1.375-0.667,2.222c-0.317,0.847-0.657,1.682-1.016,2.507c-0.36,0.825-0.73,1.566-1.111,2.222
	c-0.381,0.657-0.698,1.09-0.952,1.301c-1.65,1.523-3.597,2.952-5.84,4.285c-2.244,1.333-4.581,2.498-7.014,3.491
	c-2.434,0.995-4.867,1.788-7.3,2.38c-2.434,0.593-4.666,0.889-6.697,0.889c-1.016,0-2.137-0.201-3.364-0.603
	c-1.228-0.402-2.359-0.93-3.396-1.587c-1.038-0.656-1.904-1.406-2.603-2.253c-0.698-0.846-1.047-1.692-1.047-2.539
	c0-0.422,0.127-0.898,0.381-1.428c0.254-0.529,0.571-1.016,0.952-1.46s0.793-0.825,1.238-1.143S206.35,537.422,206.731,537.422z"/>
<path fill="#FFFFFF" d="M367.517,496.543c-1.482,0-3.069,0.349-4.761,1.047c-1.693,0.698-3.45,1.641-5.269,2.825
	c-1.82,1.185-3.672,2.529-5.554,4.031c-1.883,1.502-3.735,3.058-5.554,4.666c-0.931,0.804-1.82,1.534-2.666,2.19
	c-0.847,0.657-1.693,1.153-2.539,1.492c-0.593,0.974-1.217,2.253-1.873,3.84c-0.657,1.587-1.301,3.323-1.936,5.205
	c-0.635,1.883-1.238,3.809-1.809,5.776s-1.047,3.799-1.428,5.491c-0.212,0.889-0.381,1.756-0.508,2.603
	c-0.127,0.847-0.276,1.746-0.444,2.698c-0.169,0.952-0.371,1.979-0.603,3.079c-0.233,1.101-0.519,2.328-0.857,3.682
	c-0.212,0.804-0.55,1.45-1.016,1.936c-0.466,0.487-0.952,0.857-1.46,1.111s-0.995,0.413-1.46,0.476
	c-0.466,0.063-0.825,0.095-1.079,0.095c-1.609,0-2.92-0.381-3.936-1.143s-1.523-2.243-1.523-4.443c0-0.592,0.021-1.216,0.063-1.873
	c0.042-0.656,0.168-1.386,0.381-2.19c0.93-4.02,1.83-7.638,2.698-10.854c0.867-3.215,1.746-6.199,2.634-8.95
	c0.889-2.75,1.787-5.342,2.698-7.776c0.91-2.433,1.841-4.888,2.793-7.363s1.946-5.036,2.983-7.681
	c1.037-2.644,2.147-5.575,3.333-8.792c0.254-0.719,0.92-1.322,2-1.809c1.079-0.486,2.231-0.73,3.459-0.73
	c1.608,0,2.93,0.36,3.967,1.079c1.037,0.72,1.555,1.756,1.555,3.11c0,0.127-0.042,0.36-0.127,0.698
	c-0.085,0.339-0.212,0.698-0.381,1.079l-2.793,6.602c1.777-1.396,3.628-2.793,5.554-4.189c1.925-1.396,3.904-2.655,5.935-3.777
	c2.031-1.121,4.072-2.031,6.125-2.729c2.052-0.698,4.072-1.047,6.062-1.047c4.063,0,7.236,1.09,9.521,3.269
	c2.285,2.18,3.428,5.554,3.428,10.125c0,2.625-0.455,5.608-1.365,8.95c-0.911,3.343-2.053,6.93-3.428,10.759
	c-1.375,3.831-2.856,7.85-4.443,12.061s-3.058,8.496-4.412,12.854c-0.381,1.185-0.772,2.18-1.174,2.983
	c-0.403,0.804-0.879,1.45-1.428,1.936c-0.55,0.486-1.196,0.835-1.936,1.047c-0.741,0.211-1.641,0.317-2.698,0.317
	c-1.65,0-2.793-0.308-3.428-0.92c-0.635-0.614-0.952-1.597-0.952-2.952c0-1.184,0.18-2.634,0.54-4.348
	c0.359-1.714,0.867-3.596,1.523-5.649c0.656-2.052,1.417-4.242,2.285-6.57c0.867-2.327,1.809-4.697,2.825-7.109
	c0.803-1.946,1.597-3.893,2.38-5.84c0.783-1.946,1.481-3.83,2.095-5.649c0.613-1.819,1.111-3.555,1.492-5.205
	s0.571-3.174,0.571-4.57c0-1.311-0.286-2.465-0.857-3.459C370.151,497.041,369.082,496.543,367.517,496.543z"/>
<path fill="#FFFFFF" d="M425.09,545.928c0-1.227,0.148-2.698,0.444-4.412s0.444-3.84,0.444-6.379
	c-1.396,1.016-2.941,2.222-4.634,3.618s-3.45,2.729-5.269,3.999c-1.82,1.27-3.629,2.339-5.428,3.206
	c-1.799,0.868-3.48,1.301-5.046,1.301c-1.27,0-2.476-0.19-3.618-0.571s-2.117-0.889-2.92-1.523
	c-2.244-1.777-3.862-3.555-4.855-5.332c-0.995-1.777-1.492-3.85-1.492-6.221c0-1.057,0.096-2.158,0.285-3.301
	c0.191-1.143,0.477-2.454,0.857-3.936c1.607-6.686,4.369-12.875,8.283-18.567c3.914-5.691,8.77-10.547,14.568-14.568
	c2.242-1.565,4.484-2.571,6.729-3.015c2.242-0.444,4.465-0.667,6.665-0.667c0.974,0,2.063,0.063,3.269,0.19
	c1.207,0.127,2.295,0.254,3.27,0.381c0.973-0.211,1.767-0.359,2.381-0.444c0.612-0.084,1.258-0.127,1.936-0.127
	c1.27,0,2.326,0.169,3.174,0.508c0.846,0.339,1.523,0.793,2.031,1.365s0.878,1.228,1.111,1.968c0.231,0.741,0.349,1.514,0.349,2.317
	c0,1.101-0.169,2.148-0.508,3.142c-0.339,0.995-0.677,2-1.016,3.015l-8.379,33.452c-0.169,1.82-0.317,3.491-0.444,5.015
	s-0.381,2.942-0.762,4.253c-0.127,0.381-0.285,0.857-0.477,1.428c-0.189,0.571-0.498,1.122-0.92,1.65
	c-0.424,0.53-0.952,0.984-1.587,1.365s-1.46,0.571-2.476,0.571c-1.313,0-2.359-0.085-3.143-0.254
	c-0.783-0.169-1.387-0.413-1.809-0.73c-0.424-0.317-0.698-0.698-0.825-1.143S425.09,546.521,425.09,545.928z M404.016,526.758
	c-0.17,0.593-0.35,1.439-0.539,2.539c-0.191,1.101-0.286,2.201-0.286,3.301c0,1.143,0.169,2.169,0.508,3.079
	c0.339,0.911,1.079,1.365,2.222,1.365c1.777,0,3.438-0.391,4.982-1.174c1.545-0.783,2.994-1.724,4.349-2.825
	c1.819-1.481,3.671-3.142,5.554-4.983s3.66-3.777,5.332-5.808s3.152-4.115,4.443-6.252c1.291-2.136,2.232-4.263,2.825-6.379
	c0.339-1.227,0.624-2.644,0.856-4.253c0.232-1.608,0.35-3.047,0.35-4.316c0-0.549-0.127-1.089-0.381-1.619
	c-0.254-0.529-0.74-0.793-1.46-0.793c-2.073,0-4.157,0.403-6.253,1.206c-2.094,0.804-4.115,1.883-6.062,3.237
	c-1.946,1.355-3.799,2.952-5.554,4.792c-1.757,1.841-3.355,3.809-4.793,5.903c-1.439,2.095-2.677,4.253-3.713,6.475
	C405.358,522.473,404.565,524.642,404.016,526.758z"/>
<path fill="#FFFFFF" d="M457.336,544.468c1.27-4.951,2.496-9.563,3.682-13.838c1.184-4.274,2.338-8.368,3.459-12.283
	c1.121-3.914,2.211-7.712,3.27-11.394c1.057-3.682,2.072-7.427,3.047-11.235c0.381-1.481,0.604-2.909,0.666-4.285
	c0.064-1.375,0.264-2.803,0.604-4.285c0.168-0.508,0.477-0.962,0.92-1.365c0.445-0.402,0.941-0.751,1.492-1.047
	c0.549-0.295,1.132-0.529,1.746-0.698c0.612-0.168,1.195-0.254,1.745-0.254c1.185,0,2.168,0.138,2.952,0.413
	c0.782,0.276,1.417,0.646,1.904,1.111c0.485,0.466,0.824,1.026,1.016,1.682c0.189,0.657,0.285,1.387,0.285,2.19
	c0,1.439-0.232,2.888-0.698,4.348s-1.038,3.058-1.714,4.792c1.988-1.565,4.031-3.047,6.125-4.443
	c2.096-1.396,4.254-2.624,6.475-3.682c2.223-1.057,4.496-1.904,6.824-2.539c2.326-0.635,4.738-0.952,7.236-0.952
	c1.143,0,2.285,0.181,3.428,0.54c1.143,0.36,2.168,0.92,3.078,1.682s1.672,1.756,2.285,2.983c0.613,1.228,0.963,2.729,1.048,4.507
	c1.819-1.227,3.702-2.465,5.649-3.713c1.945-1.248,3.925-2.37,5.936-3.364c2.009-0.994,4.02-1.798,6.029-2.412
	c2.01-0.613,3.968-0.92,5.872-0.92c2.835,0,5.173,0.371,7.015,1.111c1.84,0.741,3.301,1.736,4.379,2.983
	c1.08,1.249,1.842,2.698,2.285,4.348c0.445,1.65,0.667,3.407,0.667,5.269c0,2.031-0.19,4.126-0.571,6.284s-0.805,4.211-1.27,6.157
	c-1.229,4.91-2.603,9.553-4.126,13.933s-3.174,8.813-4.951,13.298c-0.423,1.058-0.868,2.18-1.333,3.364
	c-0.467,1.185-1.006,2.275-1.619,3.269c-0.613,0.995-1.332,1.82-2.158,2.476c-0.824,0.656-1.787,0.984-2.888,0.984
	c-2.497,0-4.212-0.423-5.142-1.27c-0.932-0.846-1.396-2.052-1.396-3.618c0-0.422,0.021-0.91,0.063-1.46
	c0.042-0.549,0.147-1.079,0.317-1.587c0.168-0.635,0.549-1.555,1.143-2.761c0.592-1.206,1.238-2.507,1.936-3.904
	c0.699-1.396,1.387-2.803,2.063-4.221c0.677-1.417,1.185-2.655,1.523-3.713c0.55-1.819,1.195-3.925,1.937-6.316
	c0.739-2.39,1.449-4.802,2.126-7.236c0.677-2.433,1.237-4.739,1.683-6.919c0.443-2.179,0.666-3.945,0.666-5.3
	c0-0.635-0.063-1.27-0.19-1.904s-0.349-1.184-0.667-1.65c-0.316-0.465-0.762-0.846-1.332-1.143c-0.572-0.295-1.302-0.444-2.19-0.444
	c-1.27,0-2.783,0.36-4.538,1.079c-1.757,0.72-3.577,1.661-5.459,2.825c-1.884,1.165-3.714,2.476-5.491,3.936s-3.301,2.91-4.57,4.348
	c-0.889,1.016-1.735,1.841-2.539,2.476s-1.608,1.122-2.412,1.46c-0.085,0.169-0.296,0.73-0.635,1.682s-0.741,2.095-1.206,3.428
	c-0.467,1.333-0.952,2.772-1.46,4.316c-0.508,1.545-0.983,2.983-1.429,4.316c-0.443,1.333-0.814,2.455-1.11,3.364
	c-0.296,0.911-0.444,1.407-0.444,1.492c-0.297,1.185-0.551,2.402-0.762,3.65c-0.213,1.249-0.402,2.444-0.571,3.586
	s-0.328,2.359-0.476,3.65c-0.149,1.292-0.445,2.498-0.889,3.618c-0.445,1.122-1.122,2.042-2.031,2.761
	c-0.911,0.719-2.19,1.079-3.841,1.079c-0.847,0-1.618-0.212-2.317-0.635c-0.697-0.422-1.301-0.962-1.809-1.619
	c-0.508-0.656-0.91-1.396-1.206-2.222s-0.466-1.66-0.508-2.507c0.974-3.809,1.925-7.236,2.856-10.283
	c0.93-3.047,1.861-5.967,2.793-8.76c0.93-2.793,1.83-5.596,2.697-8.411c0.867-2.814,1.725-5.913,2.571-9.299
	c0.212-0.803,0.381-1.597,0.508-2.38c0.127-0.783,0.19-1.47,0.19-2.063c0-1.016-0.213-1.851-0.635-2.507
	c-0.424-0.656-1.164-0.984-2.222-0.984c-1.735,0-3.46,0.349-5.173,1.047c-1.715,0.698-3.566,1.788-5.555,3.269
	c-1.99,1.482-4.2,3.364-6.633,5.649c-2.435,2.285-5.237,5.015-8.411,8.188c-0.339,0.635-0.784,1.82-1.333,3.555
	c-0.551,1.736-1.111,3.577-1.682,5.522c-0.572,1.947-1.09,3.756-1.556,5.427c-0.466,1.672-0.762,2.783-0.889,3.333
	c-0.466,1.777-0.784,3.269-0.952,4.475c-0.17,1.206-0.317,2.296-0.444,3.269c-0.085,0.508-0.212,1.344-0.381,2.507
	c-0.169,1.165-0.476,2.339-0.921,3.523c-0.443,1.185-1.068,2.231-1.872,3.142c-0.804,0.91-1.862,1.365-3.174,1.365
	c-1.946,0-3.545-0.53-4.792-1.587c-1.249-1.058-1.873-2.39-1.873-3.999c0-0.295,0.021-0.571,0.063-0.825
	S457.25,544.764,457.336,544.468z"/>
<path fill="#FFFFFF" d="M568.801,537.041c0.635-2.454,1.396-5.31,2.285-8.569c0.889-3.258,1.83-6.707,2.824-10.347
	c0.994-3.639,2-7.363,3.016-11.172s1.968-7.511,2.856-11.108c0.042-0.168,0.19-0.454,0.444-0.857
	c0.254-0.402,0.613-0.803,1.079-1.206c0.466-0.402,1.058-0.751,1.777-1.047c0.72-0.295,1.565-0.444,2.539-0.444
	c0.72,0,1.417,0.074,2.095,0.222c0.676,0.149,1.279,0.371,1.809,0.667c0.529,0.296,0.953,0.688,1.27,1.174
	c0.318,0.487,0.477,1.047,0.477,1.682c0,0.127,0,0.265,0,0.413c0,0.149-0.021,0.286-0.063,0.413l-1.777,6.729
	c-1.989,7.533-4.01,15.086-6.062,22.661c-2.054,7.576-4.053,15.171-5.999,22.788c-0.085,0.254-0.212,0.571-0.381,0.952
	s-0.403,0.762-0.698,1.143c-0.297,0.381-0.656,0.698-1.079,0.952s-0.931,0.381-1.523,0.381c-1.101,0-2.073-0.222-2.92-0.667
	s-1.565-1.006-2.158-1.682c-0.593-0.677-1.038-1.418-1.333-2.222c-0.297-0.803-0.444-1.565-0.444-2.285c0-0.211,0-0.402,0-0.571
	c0-0.168,0.042-0.359,0.127-0.571L568.801,537.041z M585.368,471.343c0.212-0.889,0.593-1.968,1.143-3.237s1.523-2.412,2.92-3.428
	c0.677-0.381,1.501-0.73,2.476-1.047c0.973-0.317,1.672-0.476,2.095-0.476s0.856,0.149,1.302,0.444
	c0.443,0.296,0.834,0.614,1.174,0.952c0.422,0.423,0.825,0.889,1.206,1.396c1.058,0.085,1.745,0.466,2.063,1.143
	c0.316,0.677,0.476,1.482,0.476,2.412c0,0.677-0.063,1.292-0.19,1.841c-0.127,0.55-0.232,0.995-0.317,1.333
	c-0.254,0.889-0.741,1.704-1.46,2.444c-0.721,0.741-1.545,1.375-2.476,1.904c-0.931,0.53-1.904,0.942-2.92,1.238
	c-1.016,0.296-1.904,0.444-2.666,0.444c-0.974,0-1.725-0.168-2.253-0.508c-0.53-0.338-1.197-1.057-2-2.158
	c-0.467-0.635-0.73-1.132-0.793-1.492c-0.064-0.359-0.096-0.667-0.096-0.92c0-0.465,0.031-0.878,0.096-1.238
	C585.209,472.031,585.283,471.682,585.368,471.343z"/>
<g>
	<path fill="#DA1984" d="M125.399,431.564l-4.519-5.299c-1.191-1.396-29.433-34.669-52.517-75.403
		c-32.125-56.688-37.773-98.339-16.787-123.795c15.607-18.931,31.176-21.409,41.485-20.155
		c16.663,2.027,32.421,15.348,42.153,35.634l-12.622,6.056c-7.541-15.717-19.504-26.367-31.222-27.792
		c-9.94-1.21-19.699,3.892-28.992,15.163C41.3,261.54,60.622,308.808,80.542,343.96c17.098,30.171,37.592,56.698,46.496,67.752
		c21.709-19.236,102.295-93.73,108.195-144.458c2.185-18.784-2.299-31.658-13.328-38.264c-15.028-9.002-39.06-4.716-49,2.189
		c-19.9,13.826-29.575,35.393-40.466,70.354l-13.366-4.164c11.542-37.048,22.744-61.637,45.844-77.687
		c13-9.031,43.336-15.19,64.182-2.703c11.121,6.662,23.624,21.071,20.04,51.892c-7.427,63.858-113.89,154.38-118.418,158.202
		L125.399,431.564z"/>
</g>
</svg>
